<svg width="406" height="306" viewBox="0 0 406 306" fill="none" xmlns="http://www.w3.org/2000/svg">
<path d="M198.067 278.312L22.9796 174.833C17.4073 171.706 12.6266 166.56 18.0569 163.201L193.774 61.924C196.413 60.2899 200.412 59.2241 203.091 60.7771L386.888 167.443C392.46 170.681 393.465 179.725 387.903 182.963L221.138 278.139C217.639 280.17 213.671 281.254 209.625 281.284C205.58 281.314 201.596 280.29 198.067 278.312Z" fill="#FF8D8D"/>
<path opacity="0.32" d="M64.3205 194.047C67.1625 194.919 70.309 198.553 73.2221 199.122C75.0085 199.477 78.5407 203.811 80.3271 203.953L126.875 227.927L286.139 151.985L206.969 98.5046L55.0739 187.074C59.7632 190.555 58.87 192.362 64.3205 194.047Z" fill="url(#paint0_linear_1_243)"/>
<path d="M209.384 78.905V45.2273C209.384 44.2187 209.641 43.2267 210.131 42.3449C210.621 41.4631 211.327 40.7206 212.183 40.1874C213.039 39.6542 214.017 39.3479 215.025 39.2974C216.032 39.2468 217.035 39.4537 217.941 39.8986L278.272 69.5366C280.633 70.6957 282.621 72.4932 284.011 74.725C285.401 76.9568 286.138 79.5337 286.139 82.1632V119.779L209.384 78.905Z" fill="#5A3F2A"/>
<path d="M286.139 119.789V152.026L279.115 155.781V115.161" fill="#5A3F2A"/>
<path d="M205.304 80.935V47.8156C205.305 46.825 205.557 45.8509 206.038 44.985C206.519 44.1191 207.213 43.3898 208.054 42.8659C208.894 42.342 209.854 42.0407 210.844 41.9904C211.833 41.94 212.819 42.1423 213.708 42.5782L272.964 71.6884C275.281 72.8279 277.233 74.5939 278.599 76.7861C279.964 78.9783 280.688 81.5091 280.688 84.0917V121.038L205.304 80.935Z" fill="#835E41"/>
<path d="M279.115 155.781L272.233 152.279V125.088H279.115V155.781Z" fill="#835E41"/>
<path d="M145.987 205.658L279.115 138.323L280.688 121.038L278.343 119.789L145.987 186.13V205.658Z" fill="#5A3F2A"/>
<path d="M277.602 110.441V120.49L234.384 142.515L228.588 134.141" fill="#E0CFB3"/>
<path d="M168.612 99.7024L210.024 76.6213L275.704 107.518C276.269 107.781 276.748 108.197 277.087 108.719C277.426 109.241 277.611 109.848 277.622 110.47C277.632 111.093 277.468 111.705 277.147 112.239C276.826 112.772 276.361 113.204 275.806 113.486L237.51 133.136L168.612 99.7024Z" fill="#F6F5F0"/>
<path d="M202.371 89.2986C201.356 84.2947 203.497 79.0979 205.416 74.5608C207.054 70.7592 209.01 67.1024 211.262 63.6293C213.657 59.8433 216.459 55.8239 221.412 55.6209C223.518 55.6292 225.612 55.9508 227.624 56.575C238.092 59.2569 248.22 63.1254 257.81 68.1054C265.077 71.9624 274.354 76.1544 274.151 86.3754C273.999 94.059 261.971 115.953 254.054 117.099C250.238 117.658 245.376 114.938 242.027 113.476C235.815 110.766 229.776 107.66 223.757 104.483C219.078 102.006 214.52 99.5095 209.76 97.1852C207.08 95.8758 203.944 94.0082 202.827 91.0952C202.627 90.5097 202.474 89.9089 202.371 89.2986Z" fill="#68E1FD"/>
<path opacity="0.24" d="M251.334 96.16C248.412 102.1 246.645 108.541 246.127 115.14C249.731 116.531 252.583 117.302 254.095 117.089C259.81 116.257 264.316 108.289 266.986 103.894C271.411 96.6167 277.278 87.3599 272.264 78.8136C263.626 74.3679 254.278 90.3846 251.334 96.16Z" fill="#351B0C"/>
<path d="M220.255 108.573C220.255 108.573 230.111 115.678 233.917 116.754C237.723 117.83 242.037 114.034 243.803 111.872C245.569 109.71 236.018 85.8577 236.018 85.8577L232.435 88.3749L235.307 107.142C234.029 107.447 222.478 100.159 222.478 100.159" fill="#EF9A9A"/>
<path d="M226.467 92.5872L220.905 96.4138C220.905 96.4138 216.845 93.1251 216.845 90.0192C216.845 86.9133 225.421 89.0652 225.421 89.0652" fill="#EF9A9A"/>
<path d="M225.239 93.4297L222.031 95.6424L219.89 89.1058L223.818 89.39L225.239 93.4297Z" fill="#D17474"/>
<path d="M241.783 78.8542C241.854 80.3158 234.13 94.7593 228.142 94.6172C222.153 94.4751 221.97 83.5029 221.97 83.5029C221.97 83.5029 220.732 79.4429 222.518 78.4279C224.305 77.4129 226.416 77.4738 227.319 79.108C228.223 80.7421 227.045 75.6671 231.207 74.5912C235.368 73.5153 241.57 75.048 241.783 78.8542Z" fill="#EF9A9A"/>
<path d="M230.405 81.3714C230.121 81.6759 235.094 85.4314 235.612 85.7156C237.469 86.7306 240.565 87.6847 241.57 85.0153C242.494 82.559 243.427 78.6309 241.783 75.1698C239.164 69.6482 232.141 66.6539 225.147 70.0948C218.154 73.5356 212.338 81.9094 214.733 87.3498C217.129 92.7902 222.975 90.9733 222.975 90.9733L225.614 86.01C225.614 86.01 222.224 82.1631 225.675 81.615C228.243 81.1989 227.918 84.0308 227.918 84.0308L230.405 81.3714Z" fill="#351B0C"/>
<path d="M220.905 96.4137C220.905 96.4137 223.716 100.585 223.95 103.326C224.183 106.066 214.815 123.727 208.207 127.686C201.599 131.644 195.012 122.134 193.875 119.647C192.738 117.16 197.184 91.085 202.371 87.228C207.557 83.371 216.855 88.04 218.225 90.8109" fill="#FF952C"/>
<path d="M220.103 122.245C209.801 109.761 202.655 102.534 182.385 103.387L168.378 96.3833L88.1934 135.674L151.235 175.553V192.301L240.555 147.235V132.477L220.103 122.245Z" fill="#68E1FD"/>
<path opacity="0.24" d="M240.565 132.477L151.235 175.553V192.301L240.565 147.235V132.477Z" fill="#351B0C"/>
<path d="M144.78 219.868L151.184 216.661V169.108C151.184 169.108 151.184 161.719 134.183 153.091C117.182 144.464 81.2 126.234 80.185 126.478C79.17 126.722 69.832 124.753 67.8629 139.541C65.8938 154.33 67.8629 182.912 67.8629 182.912L73.7804 185.379L79.6978 182.171V163.434L133.198 188.403L144.749 219.868" fill="#573C29"/>
<path d="M144.78 188.322V169.108C144.78 169.108 144.78 162.206 137.137 158.511C129.494 154.817 76.7747 128.447 76.5311 129.188C76.2875 129.929 69.4261 127.706 67.9036 139.541V182.912L73.821 185.378V170.093L138.375 203.354V216.661L144.78 219.868V188.322Z" fill="#835E41"/>
<path opacity="0.32" d="M316.954 195.63C319.796 196.503 322.648 197.355 325.571 197.944C327.357 198.261 329.16 198.468 330.971 198.563L334.016 196.533L355.006 180.923L338.949 175.584L300.968 188.779C305.657 192.24 311.453 193.945 316.954 195.63Z" fill="url(#paint1_linear_1_243)"/>
<path d="M346.612 163.921C342.826 163.597 338.838 162.45 336.036 159.861V171.087C336.036 174.178 337.264 177.141 339.449 179.327C341.634 181.512 344.598 182.739 347.688 182.739C350.773 182.731 353.729 181.5 355.908 179.316C358.087 177.132 359.31 174.172 359.31 171.087V159.658C355.362 161.282 350.855 164.287 346.612 163.921Z" fill="#68E1FD"/>
<path d="M347.688 165.962C354.124 165.962 359.341 163.194 359.341 159.78C359.341 156.366 354.124 153.599 347.688 153.599C341.253 153.599 336.036 156.366 336.036 159.78C336.036 163.194 341.253 165.962 347.688 165.962Z" fill="#5ED18D"/>
<path d="M347.688 160.826C347.688 160.826 339.761 159.658 337.67 146.839C337.66 146.839 344.42 150.574 347.688 160.826Z" fill="#5ED18D"/>
<path d="M348.855 159.192C348.855 159.192 339.72 142.88 348.855 131.918C351.633 140.797 351.633 150.313 348.855 159.192Z" fill="#5ED18D"/>
<path d="M347.688 148.94C347.688 148.94 339.761 147.773 337.67 134.953C337.66 134.953 344.42 138.689 347.688 148.94Z" fill="#5ED18D"/>
<path d="M348.652 154.167C348.652 154.167 346.622 146.403 357.686 139.521C357.676 139.521 356.843 147.194 348.652 154.167Z" fill="#5ED18D"/>
<path d="M347.688 165.962C354.124 165.962 359.341 163.194 359.341 159.78C359.341 156.366 354.124 153.599 347.688 153.599C341.253 153.599 336.036 156.366 336.036 159.78C336.036 163.194 341.253 165.962 347.688 165.962Z" fill="#146666"/>
<path d="M347.688 160.826C347.688 160.826 339.761 159.658 337.67 146.839C337.66 146.839 344.42 150.574 347.688 160.826Z" fill="#5ED18D"/>
<path d="M348.855 159.192C348.855 159.192 339.72 142.88 348.855 131.918C351.633 140.797 351.633 150.313 348.855 159.192Z" fill="#5ED18D"/>
<path d="M347.688 148.94C347.688 148.94 339.761 147.773 337.67 134.953C337.66 134.953 344.42 138.689 347.688 148.94Z" fill="#5ED18D"/>
<path d="M348.652 154.167C348.652 154.167 346.622 146.403 357.686 139.521C357.676 139.521 356.843 147.194 348.652 154.167Z" fill="#5ED18D"/>
<path d="M199.569 95.8454C198.95 96.1397 195.205 107.528 196.037 109.984C196.869 112.441 211.12 123.007 211.465 123.565C211.81 124.123 213.211 130.883 214.845 131.969C216.479 133.055 220.093 133.38 221.27 132.862C222.447 132.345 223.645 129.503 223.158 128.691C222.671 127.879 217.596 122.946 216.865 121.697C216.134 120.449 204.614 107.416 204.979 106.472C205.345 105.528 206.918 98.4945 206.918 98.4945C206.918 98.4945 201.498 94.9319 199.569 95.8454Z" fill="#EF9A9A"/>
<path d="M258.46 88.1923C258.423 86.8334 257.857 85.5426 256.882 84.5947C255.908 83.6469 254.602 83.1168 253.243 83.1173C251.982 83.1022 250.756 83.5251 249.773 84.3137C248.79 85.1023 248.111 86.2078 247.853 87.4412C247.578 88.8167 247.767 90.2448 248.391 91.5012C248.696 92.0989 249.157 92.6031 249.725 92.9605C250.293 93.3178 250.948 93.515 251.619 93.5312C252.035 93.5312 252.461 93.5312 252.877 93.5921C253.453 93.6081 254.022 93.464 254.521 93.1759C255.637 92.8976 256.628 92.2575 257.341 91.3558C258.053 90.454 258.447 89.3415 258.46 88.1923Z" fill="white"/>
<path d="M286.301 133.086C286.093 132.887 285.872 132.7 285.641 132.527C285.907 130.225 285.396 127.899 284.19 125.92C282.424 123.007 279.115 120.043 275.501 120.216C273.492 120.373 271.621 121.296 270.272 122.794C268.924 124.292 268.201 126.25 268.254 128.264C268.269 128.554 268.299 128.842 268.346 129.127C267.347 129.53 266.423 130.1 265.615 130.812C264.157 132.202 263.232 134.059 262.999 136.061C262.767 138.062 263.242 140.081 264.342 141.769C265.443 143.457 267.099 144.706 269.025 145.3C270.95 145.894 273.022 145.796 274.882 145.022C275.096 144.931 275.288 144.819 275.491 144.718C277.109 145.759 279.029 146.23 280.945 146.056C282.862 145.881 284.665 145.071 286.068 143.753C286.787 143.071 287.365 142.252 287.767 141.345C288.168 140.438 288.386 139.46 288.408 138.468C288.43 137.476 288.255 136.49 287.893 135.566C287.531 134.642 286.99 133.799 286.301 133.086Z" fill="white"/>
<path d="M297.324 186.048C295.081 179.674 289.305 175.807 282.738 175.026C282.231 174.965 281.723 174.934 281.216 174.904C280.426 172.523 279.1 170.355 277.34 168.567C275.581 166.779 273.434 165.419 271.066 164.591C268.847 163.818 266.501 163.474 264.154 163.576C263.635 162.812 263.062 162.086 262.438 161.404C259.972 153.842 253.791 147.6 245.275 146.89C236.759 146.179 227.36 152.746 222.285 160.988L222.021 160.907C218.312 159.907 214.38 160.121 210.802 161.518C207.223 162.916 204.187 165.423 202.137 168.672C200.758 170.93 199.883 173.46 199.573 176.088C199.263 178.715 199.525 181.379 200.341 183.897C191.876 186.8 186.831 200.36 190.282 209.028C192.586 214.803 197.752 217.442 203.386 218.62C202.944 220.966 202.923 223.372 203.325 225.725C203.837 229.138 205.315 232.334 207.585 234.935C209.854 237.536 212.821 239.433 216.134 240.402C221.045 241.793 226.287 241.434 230.963 239.387C236.434 245.477 246.188 247.75 254.887 244.462C259.57 242.82 263.566 239.653 266.234 235.469C274.283 237.722 283.266 235.469 288.717 227.836C292.208 222.944 295.03 216.336 293.568 210.287C294.725 209.164 295.698 207.865 296.451 206.44C299.557 200.512 299.506 192.27 297.324 186.048Z" fill="white"/>
<path d="M210.379 198.969C205.71 201.933 201.244 208.632 205.852 213.504C211.688 219.696 207.375 235.144 229.603 234.931C251.832 234.718 248.573 226.202 261.758 226.425C269.208 226.547 286.981 223.258 283.835 212.215C282.82 208.825 279.501 207.79 276.73 206.338C272.881 204.428 268.878 202.846 264.763 201.608C252.955 197.665 240.59 195.643 228.142 195.62C222.478 195.691 216.286 195.721 211.171 198.513C210.893 198.655 210.629 198.807 210.379 198.969Z" fill="#FCCA4C"/>
<path d="M235.693 204.43L207.06 211.109L215.2 218.437L236.972 206.338L235.693 204.43Z" fill="url(#paint2_linear_1_243)"/>
<path d="M233.917 176.142V176.041C233.846 175.442 234.688 175.401 234.932 175.909V175.969C234.934 175.993 234.934 176.017 234.932 176.041C235.464 180.418 235.712 184.826 235.673 189.236C235.688 189.302 235.69 189.371 235.679 189.439C235.668 189.506 235.643 189.571 235.607 189.629C235.533 189.746 235.417 189.829 235.282 189.86C235.147 189.891 235.006 189.867 234.889 189.794C234.772 189.72 234.689 189.604 234.658 189.469C234.58 189.52 234.49 189.551 234.396 189.557C234.303 189.563 234.21 189.544 234.126 189.503C234.042 189.462 233.97 189.4 233.917 189.323C233.865 189.246 233.833 189.156 233.826 189.063C233.533 184.76 233.564 180.441 233.917 176.142Z" fill="#AB9E5A"/>
<path d="M223.95 186.119C223.95 186.048 224.041 186.008 224.082 185.947C224.066 185.835 224.095 185.722 224.163 185.632C226.629 182.11 231.268 183.602 233.389 186.566C233.989 187.237 234.365 188.078 234.465 188.972C234.536 189.581 233.653 189.611 233.45 189.073C233.39 189.011 233.348 188.934 233.328 188.85C233.156 188.2 232.859 187.59 232.455 187.053C231.632 186.332 230.623 185.857 229.542 185.683C228.182 185.409 225.624 185.135 224.812 186.637C224.518 187.206 223.635 186.698 223.95 186.119Z" fill="#575C1C"/>
<path d="M222.843 182.689C227.035 179.826 233.815 183.592 234.394 188.434C234.405 188.498 234.402 188.563 234.383 188.625C234.365 188.688 234.332 188.745 234.288 188.792C234.244 188.839 234.189 188.876 234.128 188.898C234.067 188.92 234.002 188.928 233.937 188.921C233.886 188.951 233.828 188.97 233.768 188.975C233.709 188.981 233.649 188.973 233.593 188.953C233.536 188.933 233.485 188.9 233.443 188.858C233.401 188.815 233.369 188.764 233.348 188.708C231.592 184.648 228.101 181.745 223.523 183.521H223.422H223.361C222.813 183.937 222.285 183.054 222.843 182.689Z" fill="#636D27"/>
<path d="M225.33 179.938L225.411 179.847C225.531 179.755 225.669 179.689 225.816 179.654C225.963 179.62 226.115 179.616 226.264 179.644C231.207 179.177 235.247 184.15 235.287 188.85C235.29 188.922 235.277 188.993 235.248 189.059C235.219 189.126 235.176 189.184 235.121 189.231C235.066 189.278 235.002 189.312 234.932 189.33C234.862 189.349 234.789 189.351 234.719 189.337C234.653 189.388 234.575 189.423 234.493 189.439C234.41 189.454 234.326 189.45 234.245 189.426C234.165 189.402 234.091 189.36 234.031 189.302C233.97 189.244 233.924 189.173 233.897 189.093C233.217 187.013 232.811 184.739 231.237 183.095C230.496 182.338 229.6 181.75 228.61 181.374C227.62 180.997 226.559 180.839 225.503 180.912C224.894 180.953 224.843 180.131 225.33 179.938Z" fill="#746927"/>
<path d="M227.776 177.614C227.877 177.556 227.996 177.534 228.111 177.553C233.095 178.405 235.216 183.034 235.318 187.703C235.318 187.815 235.318 187.926 235.318 188.038C235.318 188.698 234.303 188.687 234.303 188.038C234.301 188.014 234.301 187.99 234.303 187.967C234.303 187.896 234.303 187.815 234.303 187.743C233.968 183.633 231.836 179.816 227.634 178.69C227.491 178.671 227.362 178.596 227.274 178.482C227.187 178.368 227.148 178.223 227.167 178.081C227.186 177.938 227.261 177.809 227.375 177.721C227.489 177.634 227.633 177.595 227.776 177.614Z" fill="#7D7A33"/>
<path d="M234.891 176.142V176.041C234.962 175.442 234.12 175.401 233.876 175.909V175.969C233.875 175.993 233.875 176.017 233.876 176.041C233.344 180.418 233.096 184.826 233.135 189.236C233.104 189.37 233.128 189.511 233.201 189.629C233.275 189.746 233.391 189.829 233.526 189.86C233.661 189.891 233.802 189.867 233.919 189.794C234.036 189.72 234.119 189.604 234.15 189.469C234.228 189.52 234.318 189.551 234.412 189.557C234.505 189.563 234.598 189.544 234.682 189.503C234.766 189.462 234.838 189.4 234.891 189.323C234.943 189.246 234.975 189.156 234.983 189.063C235.275 184.76 235.245 180.441 234.891 176.142Z" fill="#AB9E5A"/>
<path d="M244.848 186.119C244.848 186.048 244.757 186.008 244.716 185.947C244.732 185.835 244.703 185.722 244.635 185.632C242.169 182.11 237.53 183.602 235.409 186.566C234.809 187.237 234.433 188.078 234.333 188.972C234.262 189.581 235.145 189.611 235.348 189.073C235.408 189.011 235.45 188.934 235.47 188.85C235.642 188.2 235.939 187.59 236.343 187.053C237.166 186.332 238.175 185.857 239.256 185.683C240.616 185.409 243.174 185.135 243.986 186.637C244.28 187.206 245.163 186.698 244.848 186.119Z" fill="#575C1C"/>
<path d="M245.965 182.689C241.773 179.826 234.993 183.592 234.414 188.434C234.403 188.498 234.406 188.563 234.425 188.625C234.443 188.688 234.476 188.745 234.52 188.792C234.565 188.839 234.619 188.876 234.68 188.898C234.741 188.92 234.807 188.928 234.871 188.921C234.923 188.951 234.98 188.97 235.04 188.975C235.099 188.981 235.159 188.973 235.216 188.953C235.272 188.933 235.323 188.9 235.365 188.858C235.407 188.815 235.44 188.764 235.46 188.708C237.216 184.648 240.707 181.745 245.285 183.521H245.386H245.447C245.995 183.937 246.503 183.054 245.965 182.689Z" fill="#636D27"/>
<path d="M243.478 179.938L243.397 179.847C243.277 179.755 243.139 179.689 242.992 179.654C242.845 179.62 242.693 179.616 242.544 179.644C237.601 179.177 233.562 184.15 233.521 188.85C233.518 188.922 233.532 188.993 233.56 189.059C233.589 189.126 233.633 189.184 233.687 189.231C233.742 189.278 233.807 189.312 233.876 189.33C233.946 189.349 234.019 189.351 234.089 189.337C234.156 189.388 234.233 189.423 234.315 189.439C234.398 189.454 234.483 189.45 234.563 189.426C234.643 189.402 234.717 189.36 234.777 189.302C234.838 189.244 234.884 189.173 234.912 189.093C235.592 187.013 235.998 184.739 237.571 183.095C238.312 182.338 239.208 181.75 240.198 181.374C241.189 180.997 242.249 180.839 243.306 180.912C243.904 180.953 243.955 180.131 243.478 179.938Z" fill="#746927"/>
<path d="M241.032 177.614C240.931 177.556 240.812 177.534 240.697 177.553C235.713 178.405 233.592 183.034 233.491 187.703C233.491 187.815 233.491 187.926 233.491 188.038C233.491 188.698 234.506 188.687 234.506 188.038C234.507 188.014 234.507 187.99 234.506 187.967C234.506 187.896 234.506 187.815 234.506 187.743C234.841 183.633 236.972 179.816 241.174 178.69C241.317 178.671 241.446 178.596 241.534 178.482C241.621 178.368 241.66 178.223 241.641 178.081C241.622 177.938 241.547 177.809 241.433 177.721C241.319 177.634 241.175 177.595 241.032 177.614Z" fill="#7D7A33"/>
<path d="M232.273 206.541C232.273 206.287 233.125 196.452 232.953 193.539C232.78 190.626 232.618 187.449 232.618 187.449H235.257C235.257 187.449 235.937 204.643 236.972 206.521L232.273 206.541Z" fill="#974C13"/>
<path d="M270.68 209.261L242.047 215.94L250.198 223.268L271.959 211.17L270.68 209.261Z" fill="url(#paint3_linear_1_243)"/>
<path d="M268.904 180.973V180.872C268.833 180.273 269.675 180.232 269.919 180.74V180.801C269.92 180.825 269.92 180.848 269.919 180.872C270.451 185.25 270.699 189.657 270.66 194.067C270.691 194.202 270.667 194.343 270.594 194.46C270.52 194.577 270.404 194.66 270.269 194.691C270.134 194.722 269.993 194.698 269.876 194.625C269.759 194.552 269.676 194.435 269.645 194.3C269.567 194.352 269.477 194.382 269.383 194.388C269.29 194.394 269.197 194.376 269.113 194.335C269.029 194.294 268.957 194.232 268.904 194.154C268.852 194.077 268.82 193.988 268.812 193.894C268.52 189.591 268.55 185.272 268.904 180.973Z" fill="#AB9E5A"/>
<path d="M258.937 190.951C258.937 190.88 259.028 190.839 259.069 190.778C259.053 190.667 259.082 190.554 259.15 190.464C261.616 186.942 266.255 188.434 268.376 191.397C268.976 192.068 269.352 192.909 269.452 193.803C269.523 194.412 268.64 194.442 268.437 193.905C268.377 193.842 268.335 193.765 268.315 193.681C268.143 193.032 267.847 192.422 267.442 191.885C266.619 191.163 265.61 190.689 264.529 190.514C263.169 190.24 260.611 189.966 259.799 191.469C259.505 192.037 258.622 191.57 258.937 190.951Z" fill="#575C1C"/>
<path d="M257.81 187.51C262.002 184.648 268.782 188.413 269.361 193.255C269.372 193.319 269.369 193.384 269.35 193.447C269.332 193.509 269.299 193.566 269.255 193.613C269.21 193.661 269.156 193.697 269.095 193.719C269.034 193.742 268.969 193.749 268.904 193.742C268.853 193.772 268.795 193.791 268.735 193.797C268.676 193.802 268.616 193.795 268.56 193.774C268.503 193.754 268.452 193.721 268.41 193.679C268.368 193.636 268.335 193.585 268.315 193.529C266.559 189.469 263.068 186.566 258.49 188.342H258.389H258.328C257.81 188.769 257.292 187.886 257.81 187.51Z" fill="#636D27"/>
<path d="M260.317 184.769L260.398 184.678C260.518 184.586 260.656 184.521 260.803 184.486C260.95 184.451 261.102 184.447 261.251 184.475C266.194 184.008 270.234 188.982 270.274 193.681C270.277 193.753 270.264 193.825 270.235 193.891C270.206 193.957 270.163 194.016 270.108 194.062C270.053 194.109 269.989 194.143 269.919 194.162C269.849 194.18 269.776 194.182 269.706 194.168C269.64 194.22 269.562 194.255 269.48 194.27C269.397 194.286 269.312 194.281 269.232 194.257C269.152 194.234 269.078 194.191 269.018 194.133C268.957 194.075 268.911 194.004 268.884 193.925C268.204 191.844 267.798 189.57 266.224 187.926C265.483 187.169 264.587 186.582 263.597 186.205C262.607 185.828 261.546 185.671 260.49 185.744C259.84 185.784 259.84 184.962 260.317 184.769Z" fill="#746927"/>
<path d="M262.763 182.435C262.864 182.377 262.983 182.355 263.098 182.374C268.082 183.227 270.203 187.855 270.305 192.524C270.305 192.636 270.305 192.747 270.305 192.859C270.305 193.519 269.29 193.509 269.29 192.859C269.288 192.835 269.288 192.812 269.29 192.788C269.29 192.717 269.29 192.636 269.29 192.565C268.955 188.454 266.823 184.638 262.621 183.511C262.478 183.492 262.349 183.417 262.261 183.303C262.174 183.189 262.135 183.045 262.154 182.902C262.173 182.759 262.248 182.63 262.362 182.542C262.476 182.455 262.62 182.416 262.763 182.435Z" fill="#7D7A33"/>
<path d="M269.878 180.973V180.872C269.949 180.273 269.107 180.232 268.863 180.74V180.801C268.862 180.825 268.862 180.848 268.863 180.872C268.331 185.25 268.083 189.657 268.122 194.067C268.091 194.202 268.115 194.343 268.188 194.46C268.262 194.577 268.379 194.66 268.513 194.691C268.648 194.722 268.789 194.698 268.906 194.625C269.023 194.552 269.106 194.435 269.137 194.3C269.215 194.352 269.306 194.382 269.399 194.388C269.492 194.394 269.585 194.376 269.669 194.335C269.753 194.294 269.825 194.232 269.878 194.154C269.931 194.077 269.962 193.988 269.97 193.894C270.262 189.591 270.232 185.272 269.878 180.973Z" fill="#AB9E5A"/>
<path d="M279.846 190.951C279.846 190.88 279.754 190.839 279.714 190.778C279.729 190.667 279.7 190.554 279.632 190.464C277.166 186.942 272.527 188.434 270.406 191.397C269.807 192.068 269.43 192.909 269.33 193.803C269.259 194.412 270.142 194.442 270.345 193.905C270.405 193.842 270.447 193.765 270.467 193.681C270.639 193.032 270.936 192.422 271.34 191.885C272.163 191.163 273.173 190.689 274.253 190.514C275.613 190.24 278.171 189.966 278.983 191.469C279.277 192.037 280.14 191.57 279.846 190.951Z" fill="#575C1C"/>
<path d="M280.952 187.51C276.76 184.648 269.98 188.413 269.401 193.255C269.39 193.319 269.393 193.384 269.412 193.447C269.43 193.509 269.463 193.566 269.507 193.613C269.552 193.661 269.607 193.697 269.667 193.719C269.728 193.742 269.794 193.749 269.858 193.742C269.91 193.772 269.967 193.791 270.027 193.797C270.086 193.802 270.146 193.795 270.203 193.774C270.259 193.754 270.31 193.721 270.352 193.679C270.394 193.636 270.427 193.585 270.447 193.529C272.203 189.469 275.694 186.566 280.272 188.342H280.374H280.434C280.983 188.769 281.49 187.886 280.952 187.51Z" fill="#636D27"/>
<path d="M278.465 184.769L278.384 184.678C278.264 184.586 278.126 184.521 277.979 184.486C277.833 184.451 277.68 184.447 277.532 184.475C272.588 184.008 268.549 188.982 268.508 193.681C268.505 193.753 268.519 193.825 268.548 193.891C268.576 193.957 268.62 194.016 268.674 194.062C268.729 194.109 268.794 194.143 268.863 194.162C268.933 194.18 269.006 194.182 269.077 194.168C269.143 194.22 269.22 194.255 269.303 194.27C269.385 194.286 269.47 194.281 269.55 194.257C269.63 194.234 269.704 194.191 269.765 194.133C269.825 194.075 269.871 194.004 269.899 193.925C270.579 191.844 270.985 189.57 272.558 187.926C273.299 187.169 274.196 186.582 275.186 186.205C276.176 185.828 277.236 185.671 278.293 185.744C278.892 185.784 278.942 184.962 278.465 184.769Z" fill="#746927"/>
<path d="M276.019 182.435C275.918 182.377 275.799 182.355 275.684 182.374C270.7 183.227 268.579 187.855 268.478 192.524C268.478 192.636 268.478 192.747 268.478 192.859C268.478 193.519 269.493 193.509 269.493 192.859C269.494 192.835 269.494 192.812 269.493 192.788C269.493 192.717 269.493 192.636 269.493 192.565C269.827 188.454 271.959 184.638 276.161 183.511C276.304 183.492 276.433 183.417 276.521 183.303C276.608 183.189 276.647 183.045 276.628 182.902C276.609 182.759 276.534 182.63 276.42 182.542C276.306 182.455 276.162 182.416 276.019 182.435Z" fill="#7D7A33"/>
<path d="M267.26 211.373C267.26 211.119 268.112 201.284 267.94 198.371C267.767 195.457 267.605 192.281 267.605 192.281H270.244C270.244 192.281 270.924 209.475 271.959 211.352L267.26 211.373Z" fill="#974C13"/>
<path d="M245.61 220.924L216.977 227.603L225.127 234.931L246.899 222.842L245.61 220.924Z" fill="url(#paint4_linear_1_243)"/>
<path d="M243.833 192.646V192.585C243.762 191.986 244.605 191.946 244.848 192.453V192.514C244.85 192.538 244.85 192.561 244.848 192.585C245.381 196.963 245.628 201.37 245.589 205.78C245.62 205.915 245.597 206.056 245.523 206.173C245.45 206.29 245.333 206.373 245.199 206.404C245.064 206.435 244.923 206.411 244.806 206.338C244.689 206.265 244.605 206.148 244.574 206.013C244.496 206.065 244.406 206.095 244.313 206.101C244.22 206.107 244.126 206.089 244.042 206.048C243.958 206.007 243.887 205.945 243.834 205.867C243.781 205.79 243.75 205.701 243.742 205.607C243.447 201.291 243.478 196.958 243.833 192.646Z" fill="#AB9E5A"/>
<path d="M233.866 202.613C233.866 202.542 233.958 202.502 233.998 202.441C233.983 202.329 234.012 202.216 234.079 202.126C236.546 198.604 241.184 200.096 243.306 203.06C243.905 203.731 244.281 204.571 244.382 205.465C244.453 206.074 243.57 206.105 243.367 205.567C243.307 205.505 243.264 205.428 243.245 205.344C243.072 204.694 242.776 204.084 242.372 203.547C241.549 202.826 240.539 202.351 239.459 202.177C238.099 201.903 235.541 201.629 234.729 203.131C234.465 203.75 233.552 203.192 233.866 202.613Z" fill="#575C1C"/>
<path d="M232.76 199.182C236.952 196.32 243.732 200.086 244.31 204.927C244.322 204.991 244.318 205.057 244.3 205.119C244.282 205.181 244.249 205.238 244.205 205.286C244.16 205.333 244.105 205.369 244.044 205.392C243.983 205.414 243.918 205.422 243.854 205.415C243.802 205.445 243.745 205.464 243.685 205.469C243.625 205.475 243.565 205.467 243.509 205.447C243.453 205.426 243.402 205.394 243.36 205.351C243.317 205.309 243.285 205.258 243.265 205.201C241.509 201.141 238.017 198.239 233.44 200.015H233.338H233.277C232.729 200.441 232.222 199.558 232.76 199.182Z" fill="#636D27"/>
<path d="M235.247 196.442L235.328 196.351C235.448 196.259 235.586 196.193 235.732 196.158C235.879 196.123 236.032 196.12 236.18 196.148C241.123 195.681 245.163 200.654 245.204 205.354C245.207 205.426 245.193 205.497 245.164 205.563C245.136 205.629 245.092 205.688 245.038 205.735C244.983 205.782 244.918 205.816 244.849 205.834C244.779 205.852 244.706 205.855 244.635 205.841C244.569 205.892 244.492 205.927 244.409 205.943C244.327 205.958 244.242 205.954 244.162 205.93C244.081 205.906 244.008 205.864 243.947 205.806C243.887 205.748 243.841 205.676 243.813 205.597C243.133 203.517 242.727 201.243 241.154 199.599C240.413 198.842 239.516 198.254 238.526 197.877C237.536 197.501 236.476 197.343 235.419 197.416C234.82 197.447 234.77 196.645 235.247 196.442Z" fill="#746927"/>
<path d="M237.693 194.118C237.794 194.059 237.912 194.038 238.028 194.057C243.011 194.909 245.133 199.538 245.234 204.207C245.234 204.318 245.234 204.43 245.234 204.542C245.234 205.201 244.219 205.191 244.219 204.542C244.217 204.518 244.217 204.494 244.219 204.471C244.219 204.4 244.219 204.318 244.219 204.247C243.884 200.137 241.753 196.32 237.551 195.194C237.408 195.175 237.279 195.1 237.191 194.986C237.103 194.871 237.065 194.727 237.084 194.585C237.102 194.442 237.177 194.312 237.291 194.225C237.406 194.137 237.55 194.099 237.693 194.118Z" fill="#7D7A33"/>
<path d="M244.808 192.646V192.585C244.879 191.986 244.036 191.946 243.793 192.453V192.514C243.791 192.538 243.791 192.561 243.793 192.585C243.261 196.963 243.013 201.37 243.052 205.78C243.021 205.915 243.045 206.056 243.118 206.173C243.191 206.29 243.308 206.373 243.443 206.404C243.577 206.435 243.719 206.411 243.836 206.338C243.953 206.265 244.036 206.148 244.067 206.013C244.145 206.065 244.235 206.095 244.328 206.101C244.422 206.107 244.515 206.089 244.599 206.048C244.683 206.007 244.755 205.945 244.807 205.867C244.86 205.79 244.892 205.701 244.899 205.607C245.194 201.291 245.163 196.958 244.808 192.646Z" fill="#AB9E5A"/>
<path d="M254.765 202.613C254.765 202.542 254.674 202.502 254.633 202.441C254.649 202.329 254.619 202.216 254.552 202.126C252.085 198.604 247.447 200.096 245.326 203.06C244.726 203.731 244.35 204.571 244.25 205.465C244.179 206.074 245.062 206.105 245.265 205.567C245.325 205.505 245.367 205.428 245.386 205.344C245.559 204.694 245.855 204.084 246.259 203.547C247.082 202.826 248.092 202.351 249.172 202.177C250.533 201.903 253.09 201.629 253.902 203.131C254.207 203.75 255.09 203.192 254.765 202.613Z" fill="#575C1C"/>
<path d="M255.882 199.182C251.69 196.32 244.909 200.086 244.331 204.927C244.319 204.991 244.323 205.057 244.341 205.119C244.36 205.181 244.392 205.238 244.437 205.286C244.481 205.333 244.536 205.369 244.597 205.392C244.658 205.414 244.723 205.422 244.788 205.415C244.839 205.445 244.897 205.464 244.956 205.469C245.016 205.475 245.076 205.467 245.132 205.447C245.188 205.426 245.239 205.394 245.282 205.351C245.324 205.309 245.356 205.258 245.376 205.201C247.132 201.141 250.624 198.239 255.201 200.015H255.303H255.364C255.912 200.441 256.419 199.558 255.882 199.182Z" fill="#636D27"/>
<path d="M253.395 196.442L253.314 196.351C253.194 196.259 253.056 196.193 252.909 196.158C252.762 196.123 252.609 196.12 252.461 196.148C247.518 195.681 243.478 200.654 243.438 205.354C243.435 205.426 243.448 205.497 243.477 205.563C243.506 205.629 243.549 205.688 243.604 205.735C243.659 205.782 243.723 205.816 243.793 205.834C243.862 205.852 243.935 205.855 244.006 205.841C244.072 205.892 244.15 205.927 244.232 205.943C244.314 205.958 244.399 205.954 244.48 205.93C244.56 205.906 244.633 205.864 244.694 205.806C244.755 205.748 244.801 205.676 244.828 205.597C245.508 203.517 245.914 201.243 247.487 199.599C248.228 198.842 249.125 198.254 250.115 197.877C251.105 197.501 252.165 197.343 253.222 197.416C253.821 197.447 253.872 196.645 253.395 196.442Z" fill="#746927"/>
<path d="M250.949 194.118C250.847 194.059 250.729 194.038 250.614 194.057C245.63 194.909 243.509 199.538 243.407 204.207C243.407 204.318 243.407 204.43 243.407 204.542C243.407 205.201 244.422 205.191 244.422 204.542C244.424 204.518 244.424 204.494 244.422 204.471C244.422 204.4 244.422 204.318 244.422 204.247C244.757 200.137 246.889 196.32 251.091 195.194C251.233 195.175 251.363 195.1 251.45 194.986C251.538 194.871 251.576 194.727 251.558 194.585C251.539 194.442 251.464 194.312 251.35 194.225C251.236 194.137 251.091 194.099 250.949 194.118Z" fill="#7D7A33"/>
<path d="M242.189 223.035C242.189 222.781 243.042 212.946 242.869 210.033C242.697 207.12 242.534 203.943 242.534 203.943H245.173C245.173 203.943 245.853 221.137 246.889 223.015L242.189 223.035Z" fill="#974C13"/>
<defs>
<linearGradient id="paint0_linear_1_243" x1="123.048" y1="223.36" x2="150.159" y2="192.686" gradientUnits="userSpaceOnUse">
<stop stop-opacity="0"/>
<stop offset="0.99" stop-color="#552800"/>
</linearGradient>
<linearGradient id="paint1_linear_1_243" x1="320.953" y1="191.448" x2="340.959" y2="172.63" gradientUnits="userSpaceOnUse">
<stop stop-opacity="0"/>
<stop offset="0.99" stop-color="#552800"/>
</linearGradient>
<linearGradient id="paint2_linear_1_243" x1="207.06" y1="211.434" x2="236.972" y2="211.434" gradientUnits="userSpaceOnUse">
<stop offset="0.01" stop-color="#FCCA4C"/>
<stop offset="1" stop-color="#DE9F3B"/>
</linearGradient>
<linearGradient id="paint3_linear_1_243" x1="242.047" y1="216.265" x2="271.959" y2="216.265" gradientUnits="userSpaceOnUse">
<stop offset="0.01" stop-color="#FCCA4C"/>
<stop offset="1" stop-color="#DE9F3B"/>
</linearGradient>
<linearGradient id="paint4_linear_1_243" x1="216.977" y1="227.927" x2="246.899" y2="227.927" gradientUnits="userSpaceOnUse">
<stop offset="0.01" stop-color="#FCCA4C"/>
<stop offset="1" stop-color="#DE9F3B"/>
</linearGradient>
</defs>
</svg>
