<svg width="406" height="306" viewBox="0 0 406 306" fill="none" xmlns="http://www.w3.org/2000/svg">
<path d="M209.323 283.773L393.637 174.833C399.504 171.534 404.538 166.124 398.814 162.582L213.83 56.0066C211.059 54.2912 206.837 53.1646 204.015 54.7988L10.5458 167.058C4.67915 170.468 3.62355 179.979 9.53085 183.389L185.065 283.59C188.745 285.722 192.917 286.861 197.17 286.893C201.423 286.925 205.612 285.849 209.323 283.773Z" fill="#FFE1BC"/>
<path d="M122.135 74.1447C114.857 69.8715 112.939 59.9347 118.461 53.5808C118.657 53.3575 118.86 53.1342 119.07 52.9109C126.773 44.9431 141.592 52.9109 141.592 52.9109C141.592 52.9109 145.896 40.7309 166.48 43.4206C187.389 46.1814 190.678 67.74 190.678 67.74C190.678 67.74 207.689 75.2003 208.42 85.8679C209.151 96.5356 193.926 106.675 179.117 103.123C167.374 100.271 135.046 81.7166 122.135 74.1447Z" fill="#68E1FD"/>
<path opacity="0.54" d="M208.42 85.8375C208.095 81.1888 204.685 77.1491 200.94 74.0635C198.866 79.4043 194.781 83.7191 189.561 86.0811C180.792 90.273 170.804 90.1411 161.365 88.9738C153.765 88.038 146.282 86.3203 139.035 83.8481C153.498 91.9681 171.068 101.164 179.066 103.082C193.936 106.645 209.161 96.5051 208.42 85.8375Z" fill="#62A5B5"/>
<path d="M250.867 167.657C250.725 165.485 250.867 163.292 250.867 161.12V105.397C250.867 104.29 248.837 104.29 248.837 105.397V164.855C248.837 165.525 249.152 168.53 248.513 168.783C248.359 168.832 248.195 168.837 248.039 168.798C247.883 168.758 247.741 168.676 247.63 168.56C247.409 168.325 247.258 168.033 247.193 167.718C247.094 167.32 247.063 166.908 247.102 166.5C247.148 166.299 247.127 166.088 247.041 165.901C246.975 165.814 246.885 165.749 246.782 165.713C246.679 165.677 246.568 165.671 246.462 165.698C246.183 165.802 245.949 166.002 245.803 166.262C245.656 166.522 245.606 166.825 245.66 167.119C245.656 167.889 245.861 168.645 246.252 169.308C246.644 169.971 247.207 170.516 247.883 170.884C250.187 171.838 250.989 169.392 250.867 167.657Z" fill="#860E4B"/>
<path d="M210.44 225.532C210.44 225.532 212.013 225.41 212.358 223.279C212.703 221.147 212.358 217.189 212.642 216.793C212.927 216.397 214.672 214.215 214.672 214.215C214.672 214.215 210.887 211.992 210.399 212.266C209.912 212.54 207.354 214.925 207.354 214.925" fill="#5960F9"/>
<path d="M207.862 214.722C207.466 214.722 206.695 215.189 206.613 216.671C206.532 218.153 207.862 218.934 207.862 219.949C207.862 220.964 208.796 225.552 210.44 225.522C212.084 225.491 211.374 220.264 211.069 219.005C210.765 217.747 209.77 214.712 207.862 214.722Z" fill="#35464D"/>
<path d="M234.059 223.553V227.826C234.059 227.826 234.353 230.252 236.19 230.353C238.028 230.455 244.432 226.669 244.432 225.989C244.432 225.309 243.854 224.629 241.814 224.629C239.773 224.629 238.373 224.76 238.373 224.76" fill="#5960F9"/>
<path d="M218.225 178.537C217.545 178.68 217.281 195.792 218.225 201.03C218.225 201.03 211.496 209.749 209.922 212.54C209.922 212.54 214.206 213.93 214.074 215.859C214.074 215.859 223.736 208.663 225.969 203.679C228.202 198.695 229.288 181.775 229.288 181.775C229.288 181.775 223.067 177.492 218.225 178.537Z" fill="#566D7C"/>
<path d="M235.947 184.282C235.947 184.282 238.322 197.711 238.992 202.552C239.662 207.394 238.992 224.71 238.992 224.71C238.992 224.71 235.622 226.456 233.704 224.71C231.785 222.964 232.689 206.643 231.785 204.867C230.882 203.09 223.818 192.199 223.787 185.084C223.757 177.969 235.947 184.282 235.947 184.282Z" fill="#35464D"/>
<path d="M218.327 182.191C218.327 182.191 217.626 157.243 219.544 153.579C221.463 149.914 234.546 152.564 235.947 156.715C237.348 160.866 235.947 184.282 235.947 184.282C235.096 185.218 234.038 185.943 232.857 186.397C231.676 186.852 230.406 187.024 229.146 186.901C224.954 186.373 218.327 182.191 218.327 182.191Z" fill="#ED0200"/>
<path d="M230.192 161.12C230.192 161.12 228.72 175.33 236.343 175.959C240.448 174.93 244.3 173.072 247.66 170.499C247.955 169.768 247.977 168.955 247.721 168.209C247.466 167.464 246.951 166.835 246.269 166.439L236.596 169.341L236.404 159.435C236.404 159.435 236.15 156.136 233.704 156.319C231.258 156.502 230.192 161.12 230.192 161.12Z" fill="#ED5454"/>
<path d="M221.879 139.49C221.402 139.775 221.879 143.347 220.022 147.032C218.164 150.716 213.363 151.934 214.662 156.015C215.962 160.095 219.159 158.572 221.879 160.612C224.599 162.653 221.97 168.732 229.319 168.225C236.668 167.717 234.303 161.83 236.424 160.409C238.545 158.988 239.966 155.812 238.078 153.873C236.191 151.934 231.816 151.011 232.049 149.275C232.283 147.539 239.022 140.8 233.237 137.734C227.451 134.669 221.879 139.49 221.879 139.49Z" fill="#35464D"/>
<path d="M249.446 109.568C249.446 109.568 229.075 107.985 220.011 126.752C220.011 126.752 222.326 128.66 222.041 131.269" fill="#F8D34F"/>
<path d="M249.69 109.568C249.69 109.568 270.061 107.985 279.125 126.752C279.125 126.752 276.811 128.66 277.095 131.269" fill="#F8D34F"/>
<path d="M237.419 148.351C237.419 148.351 246.036 142.982 261.86 148.351C261.86 148.351 261.86 116.673 249.436 109.568C249.436 109.568 241.418 112.857 239.621 121.342C237.825 129.828 237.419 148.351 237.419 148.351Z" fill="#F8D34F"/>
<path d="M249.446 109.568C249.446 109.568 238.423 118.571 237.429 148.351C237.429 148.351 233.623 139.866 218.59 139.216C218.59 139.176 221.392 115.11 249.446 109.568Z" fill="#68E1FD"/>
<path d="M249.446 109.568C249.446 109.568 260.469 118.571 261.464 148.351C261.464 148.351 265.27 139.866 280.302 139.216C280.302 139.176 277.501 115.11 249.446 109.568Z" fill="#68E1FD"/>
<path d="M251.72 165.789C251.253 164.774 249.893 166.022 249.893 166.022C249.893 166.022 249.893 165.089 249.233 165.18C248.233 165.654 247.29 166.24 246.422 166.926C247.081 167.811 247.468 168.869 247.538 169.971C248.835 169.685 250.108 169.298 251.344 168.814C252.065 168.408 252.146 166.794 251.72 165.789Z" fill="#FFE5C2"/>
<path d="M173.798 209.302C164.897 199.548 148.484 203.953 137.421 206.602C129.94 208.389 115.233 214.671 124.338 224.294C128.235 228.414 132.6 228.78 137.786 229.896C140.76 230.536 141.044 232.546 143.054 234.576C144.617 236.072 146.569 237.1 148.687 237.539C153.762 238.757 159.599 237.884 164.389 236.118C168.663 234.545 173.311 231.835 172.509 226.547C172.24 224.835 171.498 223.232 170.368 221.918C170.855 221.665 171.383 221.401 171.789 221.106C175.879 218.396 177.351 213.189 173.798 209.302Z" fill="#F4C795"/>
<path d="M170.956 209.302C162.055 199.548 145.642 203.953 134.579 206.602C127.098 208.389 112.391 214.671 121.495 224.294C125.393 228.414 129.758 228.78 134.944 229.896C137.918 230.536 138.202 232.546 140.212 234.576C141.775 236.072 143.727 237.1 145.845 237.539C150.92 238.757 156.757 237.884 161.547 236.118C165.821 234.545 170.469 231.835 169.667 226.547C169.383 224.83 168.624 223.226 167.475 221.918C167.962 221.665 168.49 221.401 168.896 221.106C173.037 218.396 174.509 213.189 170.956 209.302Z" fill="url(#paint0_linear_1_127)"/>
<path d="M350.337 161.222C344.907 159.263 337.599 161.556 332.331 162.846C326.14 164.368 319.928 166.144 313.412 166.449C306.043 166.794 299.729 162.287 292.594 165.078C282.008 169.22 267.838 188.667 289.123 188.535C305.007 188.434 317.269 178.781 332.433 176.7C339.406 175.746 348.226 177.857 354.194 173.899C359.31 170.478 355.757 163.15 350.337 161.222Z" fill="#F4C795"/>
<path d="M348.835 160.43C343.405 158.471 336.097 160.765 330.829 162.054C324.638 163.576 318.426 165.353 311.909 165.657C304.541 166.002 298.227 161.496 291.092 164.287C280.505 168.428 266.336 187.875 287.621 187.743C303.505 187.642 315.767 177.989 330.931 175.909C337.904 174.954 346.724 177.066 352.692 173.107C357.848 169.687 354.235 162.379 348.835 160.43Z" fill="url(#paint1_linear_1_127)"/>
<path d="M136.639 133.035C134.203 132.426 106.189 138.881 106.565 148.493C106.94 158.105 121.597 155.537 134.985 153.893C148.373 152.249 160.025 138.881 136.639 133.035Z" fill="#F4C795"/>
<path d="M133.767 133.38C131.374 133.14 128.958 133.284 126.611 133.806C120.521 135.441 103.368 139.511 103.753 148.199C104.169 157.801 118.785 155.243 132.173 153.599C137.522 152.939 146.383 149.681 147.175 143.317C147.967 136.76 140.385 133.908 133.767 133.38Z" fill="url(#paint2_linear_1_127)"/>
<path style="mix-blend-mode:multiply" opacity="0.46" d="M18.5034 188.525L56.7283 171.93L63.2954 182.78L47.705 205.201L18.5034 188.525Z" fill="url(#paint3_linear_1_127)"/>
<path d="M63.2954 182.679V142.982H54.6577V183.024C57.6418 183.897 60.7883 184.029 63.2954 182.679Z" fill="#A83F1E"/>
<path d="M59.885 143.094V183.755C61.0856 183.678 62.2572 183.353 63.3258 182.8V143.094H59.885Z" fill="#7F2B14"/>
<path d="M71.05 146.697C76.4295 146.433 83.3112 144.504 81.2914 138.516C80.1038 134.974 76.4397 131.858 74.095 129.046C71.7504 126.234 72.268 124.357 69.6595 121.616C71.8823 121.708 75.1202 121.291 75.6683 119.079C76.1453 117.15 65.7619 105.295 61.2654 100.494C60.7679 99.9508 60.0808 99.6195 59.346 99.5685C58.6111 99.5175 57.8848 99.7507 57.3171 100.22C51.968 104.483 38.296 115.821 40.2042 119.089C41.3511 121.058 43.6856 121.748 45.7664 121.921C40.8538 126.854 35.2408 133.015 34.6826 139.572C34.1852 145.266 40.0113 146.027 45.4416 145.733C41.6861 150.3 31.465 163.282 33.83 167.21C35.0581 169.24 39.0065 169.981 41.341 170.438C46.4083 171.464 51.5685 171.96 56.7385 171.92C61.938 172.004 67.1159 171.232 72.065 169.636C74.8012 168.795 77.3413 167.414 79.5354 165.576C81.9207 163.333 80.5504 160.937 79.0381 158.684C76.2976 154.685 73.6484 150.696 71.05 146.697Z" fill="#52AF45"/>
<path d="M69.6188 121.616C69.6188 121.616 63.0721 121.19 58.5148 121.312L81.5959 140.282C81.5959 140.282 82.215 138.079 78.1347 133.563C74.9855 129.811 72.138 125.817 69.6188 121.616Z" fill="#0D5B23"/>
<path d="M71.05 146.697H57.5809L79.5151 165.535C80.1791 165.057 80.6441 164.351 80.8219 163.552C80.9996 162.753 80.8777 161.916 80.4793 161.201C79.0076 158.643 71.05 146.697 71.05 146.697Z" fill="#0D5B23"/>
<path style="mix-blend-mode:multiply" opacity="0.46" d="M181.066 235.479L211.069 218.975L244.442 225.928L210.267 252.105L181.066 235.479Z" fill="url(#paint4_linear_1_127)"/>
<path style="mix-blend-mode:multiply" opacity="0.46" d="M327.906 183.45L367.937 171.514L372.698 177.705L351.068 196.645L327.906 183.45Z" fill="url(#paint5_linear_1_127)"/>
<path d="M371.937 179.319V150.513H365.664V179.563C367.707 180.297 369.956 180.209 371.937 179.319Z" fill="#A83F1E"/>
<path d="M369.46 150.594V180.09C370.332 180.032 371.182 179.794 371.957 179.39V150.594H369.46Z" fill="#7F2B14"/>
<path d="M377.529 153.213C381.427 153.02 386.421 151.62 384.959 147.275C384.096 144.707 381.437 142.444 379.742 140.404C378.047 138.364 378.422 137.004 376.524 135.014C378.138 135.085 380.483 134.781 380.879 133.177C381.224 131.776 373.693 123.179 370.424 119.688C370.064 119.304 369.573 119.07 369.048 119.032C368.523 118.994 368.003 119.156 367.592 119.485C363.705 122.53 353.788 130.802 355.179 133.177C355.644 133.815 356.256 134.332 356.962 134.686C357.669 135.039 358.449 135.218 359.239 135.207C355.676 138.78 351.606 143.256 351.19 148.016C350.835 152.147 355.057 152.696 358.995 152.482C356.275 155.791 348.845 165.21 350.571 168.073C351.464 169.585 354.326 170.103 356.021 170.417C359.696 171.162 363.437 171.522 367.186 171.493C370.954 171.547 374.706 170.981 378.29 169.819C380.278 169.2 382.121 168.188 383.711 166.845C385.446 165.21 384.472 163.485 383.355 161.841C381.366 159.009 379.448 156.106 377.529 153.213Z" fill="#52AF45"/>
<path d="M376.565 135.014C376.565 135.014 371.815 134.71 368.506 134.791L385.253 148.554C385.253 148.554 385.7 146.951 382.736 143.682C380.454 140.96 378.39 138.062 376.565 135.014Z" fill="#0D5B23"/>
<path d="M377.529 153.213H367.785L383.67 166.875C384.152 166.527 384.489 166.015 384.618 165.435C384.747 164.855 384.659 164.248 384.37 163.729C383.335 161.871 377.529 153.213 377.529 153.213Z" fill="#0D5B23"/>
<path d="M287.062 83.1578C285.81 82.4383 284.73 81.4533 283.899 80.2719C283.067 79.0906 282.505 77.7416 282.25 76.3197C281.996 74.8978 282.056 73.4374 282.426 72.0411C282.796 70.6449 283.467 69.3465 284.393 68.2373L284.839 67.7501C290.432 61.9748 301.181 67.7501 301.181 67.7501C301.181 67.7501 304.307 58.8993 319.238 60.8684C334.402 62.8984 336.787 78.4888 336.787 78.4888C336.787 78.4888 349.13 83.8988 349.657 91.6838C350.185 99.4689 339.142 106.777 328.393 104.199C319.887 102.108 296.431 88.649 287.062 83.1578Z" fill="#68E1FD"/>
<path opacity="0.54" d="M349.667 91.6433C349.434 88.2735 346.957 85.3401 344.237 83.1071C342.729 86.9852 339.759 90.1162 335.965 91.826C329.601 94.871 322.364 94.7898 315.513 93.927C310.009 93.244 304.591 91.9957 299.344 90.202C309.839 96.0687 322.577 102.758 328.383 104.158C339.152 106.736 350.175 99.3776 349.667 91.6433Z" fill="#62A5B5"/>
<path d="M157.883 111.73L155.64 118.693C154.838 121.18 158.685 122.428 159.507 119.941L161.75 112.979C162.552 110.492 158.695 109.233 157.883 111.73Z" fill="#62A5B5"/>
<path d="M135.117 92.5568L132.874 99.5197C132.072 102.006 135.919 103.255 136.741 100.768L138.984 93.8052C139.776 91.3185 135.919 90.07 135.117 92.5568Z" fill="#62A5B5"/>
<path d="M139.512 111.73L137.269 118.693C136.467 121.18 140.314 122.428 141.136 119.941L143.379 112.979C144.13 110.492 140.314 109.233 139.512 111.73Z" fill="#62A5B5"/>
<path d="M168.987 127.158L166.744 134.121C165.942 136.608 169.789 137.856 170.611 135.369L172.855 128.407C173.656 125.92 169.799 124.671 168.987 127.158Z" fill="#62A5B5"/>
<path d="M187.004 114.927L184.73 121.88C183.928 124.367 187.775 125.615 188.597 123.129L190.84 116.166C191.662 113.679 187.775 112.4 187.004 114.927Z" fill="#62A5B5"/>
<path d="M242.412 83.98L240.169 90.9429C239.367 93.4297 243.214 94.6781 244.036 92.1913L246.28 85.2285C247.081 82.7519 243.214 81.4933 242.412 83.98Z" fill="#62A5B5"/>
<path d="M219.636 64.8269L217.393 71.8C216.591 74.2867 220.438 75.5352 221.26 73.0485L223.503 66.0856C224.315 63.5785 220.448 62.33 219.636 64.8269Z" fill="#62A5B5"/>
<path d="M224.041 83.98L221.798 90.9429C220.996 93.4297 224.843 94.6781 225.665 92.1913L227.908 85.2285C228.71 82.7519 224.843 81.4933 224.041 83.98Z" fill="#62A5B5"/>
<path d="M253.517 99.4182L251.273 106.381C250.472 108.868 254.318 110.116 255.141 107.63L257.384 100.667C258.186 98.19 254.318 96.9314 253.517 99.4182Z" fill="#62A5B5"/>
<path d="M271.523 87.1874L269.279 94.13C268.478 96.6168 272.324 97.8652 273.147 95.3785L275.39 88.4156C276.192 85.9491 272.335 84.6905 271.523 87.1874Z" fill="#62A5B5"/>
<path d="M313.402 162.937L311.158 169.9C310.357 172.386 314.203 173.635 315.026 171.148L317.269 164.185C318.071 161.699 314.203 160.45 313.402 162.937Z" fill="#62A5B5"/>
<path d="M290.625 143.774L288.382 150.737C287.58 153.223 291.427 154.472 292.249 151.985L294.492 145.022C295.294 142.535 291.437 141.277 290.625 143.774Z" fill="#62A5B5"/>
<path d="M295.03 162.937L292.787 169.9C291.985 172.386 295.832 173.635 296.654 171.148L298.897 164.185C299.699 161.699 295.832 160.45 295.03 162.937Z" fill="#62A5B5"/>
<path d="M324.506 178.375L322.262 185.338C321.461 187.825 325.307 189.073 326.13 186.586L328.373 179.623C329.175 177.127 325.307 175.878 324.506 178.375Z" fill="#62A5B5"/>
<path d="M342.512 166.134L340.269 173.097C339.467 175.584 343.314 176.832 344.136 174.345L346.379 167.383C347.181 164.896 343.324 163.637 342.512 166.134Z" fill="#62A5B5"/>
<path d="M165.821 167.21L163.577 174.173C162.776 176.66 166.622 177.908 167.445 175.421L169.688 168.458C170.52 165.921 166.622 164.672 165.821 167.21Z" fill="#62A5B5"/>
<path d="M143.044 147.996L140.801 154.959C139.999 157.446 143.846 158.694 144.668 156.207L146.911 149.244C147.713 146.758 143.856 145.499 143.044 147.996Z" fill="#62A5B5"/>
<path d="M147.449 167.21L145.206 174.173C144.404 176.66 148.251 177.908 149.073 175.421L151.316 168.458C152.118 165.921 148.251 164.672 147.449 167.21Z" fill="#62A5B5"/>
<path d="M176.925 182.597L174.682 189.54C173.88 192.027 177.727 193.275 178.549 190.788L180.792 183.826C181.594 181.349 177.726 180.1 176.925 182.597Z" fill="#62A5B5"/>
<path d="M194.931 170.357L192.688 177.36C191.886 179.847 195.733 181.095 196.555 178.608L198.798 171.646C199.6 169.118 195.743 167.86 194.931 170.357Z" fill="#62A5B5"/>
<path d="M95.1968 189.916L92.9537 196.878C92.1518 199.365 95.9987 200.614 96.8208 198.127L99.064 191.164C99.8658 188.677 96.0088 187.429 95.1968 189.916Z" fill="#62A5B5"/>
<path d="M72.4304 170.752L70.1873 177.715C69.3854 180.202 73.2322 181.45 74.0544 178.964L76.2975 172.001C77.14 169.514 73.2323 168.225 72.4304 170.752Z" fill="#62A5B5"/>
<path d="M76.8254 189.916L74.5822 196.878C73.7804 199.365 77.6272 200.614 78.4493 198.127L80.6925 191.164C81.4943 188.677 77.6272 187.429 76.8254 189.916Z" fill="#62A5B5"/>
<path d="M106.301 205.354L104.058 212.317C103.256 214.803 107.103 216.052 107.925 213.565L110.168 206.602C110.97 204.115 107.103 202.867 106.301 205.354Z" fill="#62A5B5"/>
<path d="M124.317 193.113L122.074 200.076C121.272 202.562 125.119 203.811 125.941 201.324L128.184 194.361C128.976 191.875 125.119 190.626 124.317 193.113Z" fill="#62A5B5"/>
<defs>
<linearGradient id="paint0_linear_1_127" x1="151.925" y1="195.062" x2="133.452" y2="261.96" gradientUnits="userSpaceOnUse">
<stop stop-color="#3FC1C9"/>
<stop offset="0.26" stop-color="#4FC6CE"/>
<stop offset="0.39" stop-color="#CCEEF1"/>
<stop offset="0.52" stop-color="#65CDD4"/>
<stop offset="1" stop-color="#3FC1C9"/>
</linearGradient>
<linearGradient id="paint1_linear_1_127" x1="326.038" y1="138.648" x2="305.474" y2="211.9" gradientUnits="userSpaceOnUse">
<stop stop-color="#3FC1C9"/>
<stop offset="0.26" stop-color="#4FC6CE"/>
<stop offset="0.39" stop-color="#CCEEF1"/>
<stop offset="0.52" stop-color="#65CDD4"/>
<stop offset="1" stop-color="#3FC1C9"/>
</linearGradient>
<linearGradient id="paint2_linear_1_127" x1="130.184" y1="129.696" x2="113.792" y2="183.805" gradientUnits="userSpaceOnUse">
<stop stop-color="#3FC1C9"/>
<stop offset="0.26" stop-color="#4FC6CE"/>
<stop offset="0.39" stop-color="#CCEEF1"/>
<stop offset="0.52" stop-color="#65CDD4"/>
<stop offset="1" stop-color="#3FC1C9"/>
</linearGradient>
<linearGradient id="paint3_linear_1_127" x1="60.3316" y1="170.631" x2="36.4994" y2="193.6" gradientUnits="userSpaceOnUse">
<stop stop-color="#78B46A"/>
<stop offset="0.03" stop-color="#7F3500"/>
<stop offset="1" stop-color="white"/>
</linearGradient>
<linearGradient id="paint4_linear_1_127" x1="229.573" y1="211.048" x2="204.33" y2="240.584" gradientUnits="userSpaceOnUse">
<stop stop-color="#78B46A"/>
<stop offset="0.03" stop-color="#7F3500"/>
<stop offset="1" stop-color="white"/>
</linearGradient>
<linearGradient id="paint5_linear_1_127" x1="366.374" y1="165.099" x2="343.72" y2="186.931" gradientUnits="userSpaceOnUse">
<stop stop-color="#78B46A"/>
<stop offset="0.03" stop-color="#7F3500"/>
<stop offset="1" stop-color="white"/>
</linearGradient>
</defs>
</svg>
