<svg width="406" height="306" viewBox="0 0 406 306" fill="none" xmlns="http://www.w3.org/2000/svg">
<path d="M197.661 271.43L29.435 171.991C24.0758 168.946 19.488 164.043 24.7051 160.826L193.54 63.4872C196.078 61.9139 199.925 60.8888 202.492 62.3808L379.103 164.896C384.462 168.002 385.416 176.7 380.057 179.806L219.839 271.268C216.477 273.224 212.662 274.269 208.772 274.297C204.882 274.325 201.052 273.337 197.661 271.43Z" fill="#68E1FD"/>
<path d="M197.661 271.43L29.435 171.991C24.0758 168.946 19.488 164.043 24.7051 160.826L193.54 63.4872C196.078 61.9139 199.925 60.8888 202.492 62.3808L379.103 164.896C384.462 168.002 385.416 176.7 380.057 179.806L219.839 271.268C216.477 273.224 212.662 274.269 208.772 274.297C204.882 274.325 201.052 273.337 197.661 271.43Z" fill="#68E1FD"/>
<path d="M214.449 231.378C221.453 224.507 226.761 216.377 233.318 209.16C239.222 202.687 246.507 197.625 254.633 194.351C268.843 188.525 289.63 186.231 296.309 170.336C301.678 157.527 298.339 142.383 299.192 128.934C299.398 125.697 299.887 122.484 300.653 119.332L202.503 62.3706C199.925 60.8786 196.078 61.9037 193.55 63.477L24.6848 160.795C19.4576 164.033 24.0555 168.966 29.4147 171.96L164.126 251.577C183.218 252.216 200.422 245.152 214.449 231.378Z" fill="#FDF5F1"/>
<path d="M165.8 94.536C165.8 94.536 156.198 100.423 159.954 105.407C163.709 110.39 174.509 106.28 179.777 110.38C185.045 114.481 190.373 112.41 198.981 110.38C207.588 108.35 205.548 109.639 218.266 107.335C230.984 105.031 245.275 99.4791 244.93 93.1252C244.585 86.7713 222.681 81.138 216.662 81.138" fill="#EFD3C7"/>
<path d="M226.345 91.9782C220.902 85.5718 216.095 78.6507 211.993 71.3128C210.217 68.146 205.568 70.5516 206.431 73.6575C205.746 73.7517 205.107 74.0568 204.604 74.5304C204.117 74.0634 203.496 73.7597 202.829 73.6615C202.161 73.5633 201.48 73.6754 200.879 73.9823C200.816 73.47 200.632 72.9802 200.34 72.5543C200.049 72.1283 199.66 71.7787 199.205 71.5348C198.75 71.291 198.243 71.1602 197.727 71.1533C197.211 71.1465 196.701 71.2638 196.24 71.4955C195.797 71.2689 195.307 71.1474 194.809 71.1403C194.312 70.506 193.596 70.0805 192.802 69.9471C192.008 69.8138 191.192 69.9823 190.516 70.4196C188.892 69.4046 186.537 69.6888 186.141 72.0639L186.06 72.5613C186.313 69.5163 181.837 68.2374 180.376 70.8662L180.213 70.785C179.198 68.958 176.245 68.1866 174.885 70.5516C170.693 77.8667 165.942 84.847 160.675 91.4301C158.249 94.4751 162.522 98.799 164.978 95.7337C166.176 94.2417 167.333 92.6887 168.47 91.217L165.689 97.5303C164.126 101.083 169.373 104.189 170.946 100.575L175.433 90.4253C174.509 94.1605 173.291 98.4336 173.961 101.966C174.138 102.608 174.521 103.173 175.051 103.577C175.581 103.98 176.228 104.199 176.894 104.199H177.239C177.718 104.147 178.184 104.017 178.62 103.813C179.97 105.366 182.994 105.447 183.877 103.001C184.352 103.199 184.866 103.285 185.379 103.251C185.892 103.217 186.39 103.065 186.835 102.807C187.279 102.548 187.658 102.19 187.941 101.761C188.223 101.331 188.403 100.842 188.465 100.332C188.536 99.6009 188.628 98.8599 188.709 98.1291C188.709 100.24 188.709 102.341 188.709 104.453C188.709 108.056 193.865 108.34 194.677 105.315C195.072 105.279 195.455 105.164 195.804 104.975C196.153 104.787 196.46 104.53 196.707 104.219C196.954 104.84 197.335 105.398 197.824 105.853C198.94 106.868 201.061 107.203 202.127 105.853L202.34 105.579L202.411 105.468C202.954 105.73 203.559 105.841 204.16 105.789C204.761 105.737 205.337 105.523 205.826 105.171C206.316 104.818 206.701 104.34 206.942 103.787C207.182 103.233 207.269 102.625 207.192 102.027L207.06 100.636L207.466 101.885C208.674 105.6 214.571 104.006 213.343 100.261L213.231 99.9155C215.17 100.088 217.291 98.5859 216.489 96.2006C217.2 97.2867 217.91 98.3829 218.651 99.4588C220.681 102.362 225.137 100.149 224.335 97.307C224.908 97.219 225.447 96.9803 225.898 96.6153C226.348 96.2503 226.693 95.7721 226.897 95.2299C227.102 94.6876 227.158 94.1006 227.061 93.5293C226.964 92.9579 226.717 92.4226 226.345 91.9782Z" fill="#185543"/>
<path d="M226.213 70.2065C218.292 68.7631 210.978 64.9968 205.203 59.3866C204.818 59.014 204.341 58.7495 203.821 58.6199C203.302 58.4903 202.757 58.5001 202.242 58.6484C201.727 58.7966 201.261 59.0781 200.889 59.4643C200.518 59.8506 200.255 60.3279 200.128 60.8482C199.551 60.4422 198.842 60.2681 198.143 60.3602C197.443 60.4523 196.804 60.804 196.352 61.3455C195.802 61.1947 195.224 61.1835 194.669 61.3129C194.114 61.4423 193.601 61.7082 193.175 62.0865C192.766 61.8685 192.315 61.7397 191.853 61.7085C191.391 61.6773 190.927 61.7445 190.493 61.9056C190.058 62.0668 189.663 62.3182 189.332 62.6433C189.002 62.9684 188.745 63.3598 188.577 63.7917C188.085 63.7837 187.598 63.8915 187.156 64.1063C186.948 63.8868 186.713 63.6957 186.455 63.5379C187.176 60.7771 183.674 57.8742 181.502 60.4929C176.936 66.0715 170.986 70.3551 164.247 72.9165C160.614 74.2766 162.217 80.1636 165.871 78.7934C169.57 77.4161 173.09 75.5998 176.356 73.3834C175.003 75.4811 173.778 77.6464 172.682 79.8794C170.936 83.371 176.184 86.4566 177.94 82.9244C179.476 79.8507 181.223 76.8866 183.167 74.0533L181.137 80.6407C179.97 84.386 185.846 85.9999 187.014 82.2647L188.485 77.5551C188.597 79.2704 188.739 80.9858 188.942 82.7011C189.389 86.548 195.479 86.5987 195.032 82.7011C194.799 80.6711 194.647 78.6411 194.535 76.6111C195.063 78.6411 195.631 80.6711 196.281 82.7011C197.478 86.416 203.386 84.8326 202.158 81.0771C201.477 78.9659 200.889 76.8344 200.331 74.6928C201.894 77.7716 203.538 80.8166 205.263 83.8278C207.131 87.0656 212.003 84.4266 210.724 81.2091C211.18 81.1016 211.607 80.8949 211.974 80.6037C212.341 80.3125 212.639 79.944 212.848 79.5243C213.056 79.1046 213.169 78.6442 213.18 78.1758C213.19 77.7073 213.096 77.2424 212.906 76.8141C214.257 78.2117 215.535 79.6787 216.733 81.2091C217.748 82.5184 219.971 82.2241 221.037 81.2091C221.59 80.6294 221.899 79.8587 221.899 79.0573C221.899 78.2558 221.59 77.4852 221.037 76.9055C220.458 76.1645 219.869 75.454 219.26 74.7537C221.037 75.3231 222.847 75.7841 224.68 76.1341C228.426 76.804 230.07 70.9373 226.213 70.2065Z" fill="#4A8E7B"/>
<path d="M212.663 59.7114C203.995 57.0724 199.742 45.2172 196.626 37.6148C196.405 37.1018 196.061 36.6513 195.624 36.3034C195.187 35.9554 194.671 35.7208 194.122 35.6204C193.572 35.52 193.007 35.5568 192.475 35.7277C191.943 35.8985 191.462 36.1981 191.074 36.5998C190.566 36.5954 190.071 36.7537 189.66 37.0514C189.249 37.3491 188.944 37.7707 188.79 38.2543C188.456 38.5191 188.181 38.8511 187.984 39.2287C187.786 39.6064 187.67 40.0213 187.643 40.4467C187.542 41.6748 187.389 42.8928 187.257 44.1108C185.997 47.6021 184.051 50.8061 181.534 53.534C179.017 56.262 175.98 58.459 172.601 59.9956C169.048 61.65 172.144 66.9077 175.646 65.2533C179.071 63.6482 182.198 61.4721 184.892 58.8182C184.639 60.0565 184.385 61.3049 184.091 62.5432C183.289 66.0044 188.029 67.6182 189.582 65.0706C190.597 67.6385 195.256 67.2021 195.509 63.7917C195.611 62.462 195.682 61.1222 195.763 59.7926C196.342 61.5688 196.93 63.3451 197.549 65.1112C198.839 68.7855 204.715 67.2021 203.426 63.4872C203.03 62.3504 202.655 61.2136 202.279 60.0768C204.67 62.6282 207.675 64.5225 211.008 65.5781C214.794 66.725 216.408 60.8482 212.663 59.7114Z" fill="#185543"/>
<path d="M209.547 50.7387C202.586 45.9572 197.64 38.77 195.662 30.5605C195.582 30.1943 195.429 29.8479 195.212 29.5424C194.995 29.2369 194.718 28.9786 194.399 28.7832C194.079 28.5877 193.723 28.4592 193.352 28.4053C192.981 28.3514 192.603 28.3733 192.241 28.4696C191.787 28.3993 191.324 28.4199 190.879 28.5303C190.433 28.6406 190.014 28.8385 189.645 29.1125C189.277 29.3864 188.967 29.7309 188.733 30.1259C188.499 30.5208 188.346 30.9584 188.283 31.4131C188.194 31.6658 188.136 31.9282 188.11 32.1947C187.41 39.8376 182.142 45.8667 177.28 51.3782C174.702 54.3115 178.985 58.6354 181.583 55.6818C183.879 53.1415 186.031 50.4747 188.029 47.6937L187.278 53.9157C186.872 57.255 191.338 57.6915 192.86 55.3062C193.946 58.9298 199.671 57.3362 198.686 53.5706C198.138 51.4797 197.671 49.3888 197.174 47.2877C199.813 50.64 202.948 53.5699 206.471 55.9761C209.719 58.2193 212.764 52.9413 209.547 50.7387Z" fill="#4A8E7B"/>
<path d="M203.345 49.5614C198.879 46.4149 197.083 40.9237 195.448 35.9604C195.296 35.5302 195.036 35.1464 194.693 34.8459C194.349 34.5454 193.934 34.3383 193.488 34.2445C193.041 34.1507 192.578 34.1734 192.143 34.3103C191.708 34.4473 191.315 34.694 191.003 35.0266C190.697 34.935 190.375 34.9069 190.058 34.944C189.741 34.9811 189.435 35.0826 189.158 35.2422C188.882 35.4019 188.641 35.6164 188.45 35.8725C188.259 36.1286 188.123 36.421 188.049 36.7318C186.778 41.4749 184.179 45.7567 180.558 49.0742C178.163 51.297 181.756 54.88 184.151 52.6673C185.609 51.3099 186.931 49.8142 188.1 48.2013L187.714 52.6267C187.43 55.8747 192.505 55.8645 192.789 52.6267V52.1395C193.865 54.4435 197.509 53.5706 197.6 51.1245C198.547 52.1577 199.602 53.0866 200.747 53.8954C203.467 55.8341 206.045 51.429 203.345 49.5614Z" fill="#FDF5F1"/>
<path d="M223.889 73.9619C218.497 70.3452 213.29 66.4596 208.288 62.3199L205.659 59.4271C205.392 59.0983 205.034 58.8549 204.63 58.7268C204.226 58.5988 203.794 58.5917 203.386 58.7065C202.107 56.9404 199.458 58.067 199.031 59.9651C198.445 59.6484 197.763 59.5547 197.113 59.7012C196.311 57.4885 192.84 57.4276 192.282 59.5895C191.946 59.3933 191.572 59.2712 191.186 59.2316C190.799 59.1919 190.408 59.2356 190.04 59.3597C189.672 59.4838 189.334 59.6853 189.05 59.9509C188.766 60.2164 188.543 60.5396 188.394 60.8989C187.926 60.8678 187.459 60.9647 187.042 61.1793C186.626 61.3939 186.275 61.7181 186.029 62.1169C185.603 59.9752 182.517 58.7166 181.462 61.1019C179.239 66.2378 176.711 72.2669 170.753 73.7488C167.587 74.5506 168.926 79.4429 172.103 78.6411C176.62 77.4941 179.716 74.5811 182.071 70.9474C180.561 73.8061 178.866 76.5627 176.996 79.1993C175.108 81.8789 179.513 84.4164 181.38 81.7571C183.766 78.3617 185.864 74.7731 187.653 71.0286L187.247 78.905C187.064 82.1631 192.139 82.153 192.322 78.905L192.951 67.9125C193.439 71.9725 194.038 76.0325 194.799 80.0012C195.408 83.2086 200.3 81.8485 199.691 78.6512C199.204 76.0427 198.788 73.4341 198.412 70.8154C199.515 73.265 200.733 75.6638 202.066 78.0118C202.929 79.514 205.68 79.8185 206.451 78.0118L206.908 76.9257C207.106 76.4656 207.169 75.9588 207.09 75.4641C207.527 76.134 207.943 76.8141 208.39 77.4941C210.196 80.194 214.601 77.6565 212.774 74.9363L212.592 74.6521L214.947 77.2404C215.206 77.5306 215.533 77.752 215.899 77.8848C216.265 78.0176 216.658 78.0576 217.043 78.0013C217.428 77.945 217.793 77.7941 218.106 77.5621C218.418 77.3302 218.669 77.0243 218.834 76.672C219.666 77.2505 220.488 77.8291 221.331 78.3975C224.051 80.1737 226.589 75.7788 223.889 73.9619ZM205.233 73.1702C204.543 71.871 203.913 70.5617 203.294 69.232C204.12 70.6733 204.969 72.0977 205.842 73.5052C205.652 73.3734 205.448 73.2644 205.233 73.1804V73.1702Z" fill="#FDF5F1"/>
<path d="M169.789 84.2337C168.057 87.4982 166.718 90.9564 165.8 94.536C164.998 97.7028 169.86 99.0527 170.693 95.8859C171.484 92.7128 172.653 89.646 174.174 86.7509C175.696 83.9089 171.312 81.341 169.789 84.2337Z" fill="#FDF5F1"/>
<path d="M221.991 93.2063L217.21 83.6755C215.759 80.7523 211.374 83.3202 212.825 86.2333L214.784 90.07C214.23 90.1533 213.714 90.4008 213.302 90.7805L213.12 90.5166C212.087 89.009 211.283 87.357 210.734 85.6141C210.616 85.256 210.421 84.9281 210.163 84.6536C209.904 84.379 209.589 84.1645 209.239 84.0251C208.888 83.8858 208.512 83.825 208.135 83.847C207.759 83.869 207.392 83.9733 207.06 84.1525C206.157 82.9548 204.218 83.2086 203.213 84.3758C202.701 84.2053 202.148 84.1998 201.633 84.3601C201.118 84.5203 200.666 84.8382 200.341 85.269C199.694 85.0034 198.974 84.9782 198.311 85.198C197.57 82.7112 193.703 83.7262 193.5 86.3348C192.968 86.2022 192.406 86.2619 191.914 86.5034C191.422 86.7448 191.031 87.1525 190.81 87.6543C190.572 87.4044 190.29 87.2013 189.978 87.0554C189.673 84.457 185.745 84.3961 185.035 86.8423C184.415 84.8123 181.167 84.2439 180.294 86.5276C179.817 84.5585 176.884 83.4826 175.686 85.7359C173.8 89.3122 172.234 93.0484 171.007 96.9009C170.124 99.682 174.184 101.286 175.646 98.8599L179.066 93.115C178.826 95.4757 178.786 97.8524 178.945 100.22C179.097 102.524 182.477 103.935 183.674 101.499C184.363 100.092 184.973 98.6489 185.501 97.175C185.633 98.0377 185.786 98.9005 185.958 99.7531C186.466 102.199 190.302 102.148 190.85 99.7531C191.184 98.2986 191.422 96.8236 191.561 95.3378C191.835 96.9314 192.15 98.5249 192.515 100.108C192.622 100.48 192.813 100.823 193.072 101.111C193.331 101.398 193.652 101.623 194.01 101.769C194.369 101.915 194.756 101.977 195.142 101.951C195.529 101.926 195.904 101.813 196.24 101.621C197.416 100.776 198.274 99.5606 198.676 98.1697C199.052 99.479 199.468 100.788 199.955 102.077C200.737 104.168 204.37 104.787 204.847 102.077C205.212 99.9708 205.422 97.8404 205.477 95.7032C206.028 96.8491 206.641 97.9638 207.314 99.0426C207.662 99.6141 208.218 100.029 208.865 100.199C209.513 100.369 210.201 100.282 210.785 99.9561C211.526 99.5393 212.14 98.9288 212.561 98.19C212.674 98.0118 212.766 97.821 212.835 97.6216L213.048 97.8144C214.52 99.0121 216.52 99.5805 217.9 97.8144C218.169 97.4767 218.363 97.0857 218.469 96.6675C218.955 96.8867 219.497 96.9538 220.022 96.86C220.548 96.7661 221.033 96.5157 221.413 96.1416C221.794 95.7674 222.053 95.287 222.156 94.7632C222.259 94.2394 222.201 93.6968 221.991 93.2063Z" fill="#FDF5F1"/>
<path d="M75.0491 166.662C75.0491 166.662 67.0915 171.544 70.2075 175.665C73.3236 179.786 82.2657 176.396 86.6302 179.786C90.9947 183.176 95.41 181.481 102.545 179.786C109.681 178.091 107.986 179.177 118.522 177.269C129.057 175.36 140.852 170.762 140.608 165.495C140.364 160.227 122.176 155.558 117.192 155.568" fill="#EFD3C7"/>
<path d="M125.21 164.541C120.699 159.233 116.715 153.498 113.315 147.418C111.843 144.789 107.986 146.788 108.707 149.356C108.14 149.434 107.611 149.686 107.194 150.077C106.794 149.698 106.288 149.451 105.743 149.37C105.199 149.288 104.642 149.375 104.149 149.62C104.093 149.198 103.936 148.796 103.693 148.447C103.449 148.098 103.126 147.812 102.749 147.613C102.373 147.415 101.954 147.309 101.529 147.305C101.103 147.301 100.682 147.399 100.302 147.59C99.9343 147.402 99.528 147.301 99.1148 147.296C98.7044 146.77 98.1122 146.417 97.4548 146.307C96.7973 146.196 96.1222 146.335 95.5623 146.697C94.2225 145.854 92.2635 146.088 91.9387 148.057L91.8778 148.463C92.091 145.936 88.3761 144.88 87.1682 147.062L87.0363 146.991C86.8349 146.588 86.5292 146.246 86.151 146C85.7728 145.755 85.3358 145.615 84.8854 145.595C84.435 145.576 83.9875 145.677 83.5893 145.888C83.1911 146.1 82.8568 146.414 82.621 146.798C79.1459 152.844 75.2095 158.613 70.847 164.053C68.817 166.56 72.3797 170.143 74.4198 167.626C75.4348 166.398 76.3686 165.139 77.3126 163.881L75.0085 169.118C73.7093 172.062 78.0535 174.63 79.3629 171.666L83.0778 163.231C82.3064 166.327 81.3015 169.869 81.8598 172.793C82.0068 173.325 82.325 173.795 82.7652 174.128C83.2054 174.462 83.7433 174.642 84.2958 174.64H84.58C84.9736 174.598 85.3577 174.492 85.7168 174.325C86 174.667 86.367 174.929 86.7818 175.086C87.1966 175.244 87.6452 175.291 88.0837 175.224C88.5223 175.156 88.9359 174.976 89.2842 174.701C89.6325 174.427 89.9036 174.066 90.0711 173.655C90.4641 173.818 90.8893 173.888 91.3137 173.859C91.7381 173.83 92.15 173.704 92.5175 173.49C92.8849 173.275 93.1979 172.979 93.4321 172.624C93.6662 172.269 93.8151 171.865 93.8672 171.443C93.9281 170.834 93.9992 170.225 94.0702 169.616C94.0702 171.361 94.0702 173.107 94.0702 174.853C94.0702 177.837 98.3434 178.081 99.0133 175.563C99.3466 175.537 99.6709 175.442 99.966 175.285C100.261 175.128 100.521 174.912 100.729 174.65C100.933 175.163 101.249 175.623 101.652 176C102.576 176.822 104.332 177.116 105.225 176L105.398 175.777L105.459 175.685C105.908 175.904 106.409 175.997 106.908 175.954C107.406 175.911 107.883 175.734 108.289 175.441C108.695 175.149 109.014 174.752 109.213 174.293C109.411 173.834 109.482 173.329 109.417 172.833L109.255 171.717L109.59 172.732C110.605 175.777 115.466 174.488 114.451 171.392L114.36 171.108C115.964 171.25 117.699 170.001 117.06 168.063C117.649 168.966 118.237 169.869 118.846 170.763C120.501 173.168 124.216 171.331 123.556 168.976C124.035 168.906 124.486 168.709 124.863 168.405C125.239 168.101 125.527 167.701 125.696 167.248C125.865 166.795 125.909 166.304 125.824 165.828C125.738 165.352 125.527 164.907 125.21 164.541Z" fill="#185543"/>
<path d="M125.109 146.504C118.545 145.311 112.486 142.191 107.702 137.542C107.378 137.239 106.982 137.025 106.551 136.922C106.12 136.818 105.67 136.828 105.244 136.951C104.819 137.074 104.432 137.305 104.123 137.622C103.813 137.939 103.592 138.331 103.479 138.76C103.001 138.423 102.414 138.279 101.835 138.356C101.255 138.433 100.726 138.726 100.353 139.176C99.8988 139.05 99.4205 139.041 98.9614 139.147C98.5024 139.253 98.0771 139.472 97.7242 139.785C97.3856 139.605 97.0128 139.499 96.6304 139.474C96.248 139.449 95.8645 139.504 95.5051 139.638C95.1457 139.771 94.8186 139.979 94.5451 140.247C94.2715 140.515 94.0578 140.839 93.918 141.196C93.511 141.187 93.1077 141.274 92.7406 141.449C92.5659 141.268 92.368 141.111 92.1519 140.982C92.7507 138.689 89.8478 136.293 88.0919 138.455C84.286 143.084 79.3293 146.63 73.7195 148.737C70.6745 149.864 72.0143 154.746 75.0593 153.599C78.1245 152.457 81.0415 150.95 83.7477 149.113C82.6515 150.852 81.6365 152.645 80.7027 154.492C79.2512 157.385 83.6056 159.943 85.057 157.04C86.331 154.493 87.7791 152.038 89.3911 149.691L87.696 155.142C86.681 158.248 91.5936 159.577 92.5579 156.481L93.7759 152.584C93.8672 154.005 93.989 155.426 94.1514 156.847C94.5168 160.034 99.5715 160.075 99.2264 156.847C99.0336 155.152 98.9016 153.467 98.8103 151.772C99.2467 153.457 99.7238 155.142 100.252 156.847C101.267 159.892 106.118 158.613 105.113 155.507C104.555 153.751 104.098 151.995 103.601 150.219C104.894 152.77 106.247 155.287 107.661 157.77C109.204 160.46 113.244 158.258 112.188 155.609C112.566 155.52 112.92 155.348 113.225 155.107C113.529 154.866 113.776 154.56 113.949 154.212C114.121 153.864 114.215 153.482 114.223 153.093C114.231 152.705 114.153 152.32 113.995 151.965C115.116 153.123 116.177 154.34 117.172 155.609C117.647 156.08 118.289 156.344 118.958 156.344C119.627 156.344 120.269 156.08 120.744 155.609C121.204 155.127 121.46 154.487 121.46 153.822C121.46 153.157 121.204 152.517 120.744 152.036C120.267 151.427 119.729 150.828 119.273 150.249C120.744 150.722 122.242 151.105 123.759 151.396C126.936 151.985 128.296 147.113 125.109 146.504Z" fill="#4A8E7B"/>
<path d="M113.873 137.775C106.687 135.593 103.175 125.768 100.587 119.505C100.4 119.083 100.112 118.713 99.7492 118.429C99.386 118.144 98.9584 117.953 98.504 117.873C98.0497 117.793 97.5825 117.826 97.1438 117.969C96.7051 118.112 96.3084 118.36 95.9886 118.693C95.5736 118.686 95.1672 118.811 94.8279 119.05C94.4886 119.289 94.2339 119.63 94.1007 120.023C93.8234 120.242 93.5953 120.517 93.4309 120.83C93.2666 121.143 93.1697 121.487 93.1466 121.84C93.0552 122.855 92.9436 123.87 92.8319 124.885C91.7873 127.787 90.1711 130.45 88.079 132.716C85.9869 134.983 83.4614 136.806 80.6519 138.08C77.7084 139.45 80.2662 143.804 83.1996 142.434C86.0377 141.105 88.6291 139.303 90.8628 137.105C90.6497 138.12 90.4365 139.135 90.2031 140.15C89.5433 143.012 93.4714 144.383 94.7503 142.251C95.5521 144.383 99.4497 144.017 99.6629 141.236C99.7441 140.13 99.805 139.023 99.876 137.917C100.353 139.389 100.891 140.861 101.358 142.322C102.373 145.367 107.296 144.058 106.22 140.982C105.895 140.038 105.58 139.094 105.266 138.151C107.245 140.263 109.733 141.832 112.492 142.708C115.649 143.621 116.979 138.79 113.873 137.775Z" fill="#185543"/>
<path d="M111.305 130.376C105.536 126.415 101.436 120.461 99.7948 113.659C99.7285 113.356 99.6015 113.07 99.4215 112.817C99.2415 112.565 99.0123 112.352 98.7476 112.191C98.483 112.029 98.1884 111.923 97.8816 111.879C97.5749 111.835 97.2624 111.853 96.9629 111.933C96.5867 111.876 96.2028 111.894 95.8336 111.986C95.4643 112.078 95.1171 112.243 94.8121 112.471C94.5071 112.698 94.2503 112.984 94.0567 113.312C93.8631 113.639 93.7366 114.002 93.6845 114.379C93.6112 114.589 93.5635 114.807 93.5424 115.029C92.9638 121.362 88.5892 126.356 84.5698 130.924C82.4281 133.35 85.9908 136.933 88.1426 134.497C90.0444 132.392 91.8268 130.183 93.4815 127.879L92.8623 133.035C92.5274 135.796 96.2017 136.161 97.4907 134.192C98.3839 137.237 103.134 135.867 102.322 132.751C101.876 131.025 101.459 129.29 101.074 127.544C103.261 130.321 105.858 132.747 108.778 134.74C111.437 136.577 113.964 132.203 111.305 130.376Z" fill="#4A8E7B"/>
<path d="M106.159 129.401C102.464 126.793 100.972 122.246 99.6121 118.135C99.486 117.778 99.2703 117.46 98.9856 117.211C98.701 116.962 98.357 116.79 97.9868 116.713C97.6166 116.635 97.2327 116.655 96.872 116.768C96.5114 116.882 96.1861 117.087 95.9276 117.363C95.6744 117.289 95.4085 117.266 95.1462 117.297C94.884 117.328 94.6308 117.412 94.402 117.544C94.1732 117.676 93.9737 117.853 93.8154 118.065C93.6572 118.276 93.5436 118.518 93.4815 118.774C92.4313 122.701 90.2835 126.246 87.29 128.995C85.26 130.843 88.305 133.806 90.2639 131.969C91.4708 130.843 92.5653 129.602 93.5322 128.264L93.2074 131.939C92.974 134.639 97.1761 134.618 97.4095 131.939V131.533C97.6278 131.931 97.9677 132.249 98.3794 132.441C98.7912 132.632 99.2534 132.687 99.6987 132.598C100.144 132.508 100.549 132.279 100.855 131.943C101.161 131.607 101.351 131.183 101.398 130.731C102.18 131.586 103.051 132.355 103.997 133.025C106.26 134.598 108.361 130.954 106.159 129.401Z" fill="#FDF5F1"/>
<path d="M123.18 149.62C118.715 146.624 114.402 143.406 110.259 139.978L108.077 137.582C107.856 137.308 107.559 137.106 107.223 136.999C106.888 136.893 106.528 136.887 106.189 136.983C105.174 135.522 102.941 136.455 102.576 137.998C102.092 137.735 101.53 137.656 100.992 137.775C100.323 135.938 97.4501 135.897 96.9934 137.684C96.7138 137.52 96.4023 137.419 96.0801 137.387C95.7579 137.355 95.4325 137.393 95.1262 137.498C94.8199 137.603 94.5398 137.773 94.305 137.996C94.0703 138.219 93.8863 138.489 93.7657 138.79C93.3778 138.765 92.9906 138.847 92.6455 139.026C92.3004 139.205 92.0104 139.474 91.8067 139.805C91.4515 138.029 88.8937 136.993 88.0208 139.003C86.1836 143.256 84.0826 148.229 79.1497 149.478C76.531 150.148 77.6373 154.198 80.2662 153.538C83.7413 152.562 86.7029 150.278 88.5283 147.164C87.289 149.536 85.8955 151.825 84.3566 154.015C82.7935 156.228 86.4374 158.339 87.9903 156.136C89.967 153.322 91.7053 150.348 93.1871 147.245L92.8217 153.71C92.6695 156.41 96.8817 156.4 97.0238 153.71L97.5415 144.575C97.9373 147.925 98.4448 151.264 99.0741 154.594C99.5715 157.253 103.631 156.126 103.134 153.477C102.728 151.315 102.383 149.153 102.119 146.991C103.033 149.021 104.048 151.011 105.164 152.959C105.875 154.208 108.209 154.451 108.798 152.959L109.184 152.066C109.349 151.683 109.402 151.26 109.336 150.848C109.691 151.406 110.046 151.965 110.412 152.513C111.914 154.746 115.558 152.645 114.045 150.391L113.893 150.158L115.842 152.31C116.057 152.55 116.328 152.733 116.631 152.842C116.935 152.952 117.26 152.984 117.579 152.937C117.898 152.89 118.2 152.764 118.458 152.571C118.717 152.379 118.923 152.125 119.059 151.833C119.75 152.31 120.43 152.797 121.089 153.264C123.312 154.766 125.413 151.122 123.18 149.62ZM107.722 148.94C107.154 147.864 106.626 146.778 106.118 145.672C106.795 146.863 107.499 148.043 108.229 149.214C108.072 149.103 107.901 149.011 107.722 148.94Z" fill="#FDF5F1"/>
<path d="M78.358 158.126C76.9216 160.83 75.8109 163.696 75.0491 166.662C74.3792 169.281 78.4392 170.407 79.1091 167.778C79.7672 165.162 80.7348 162.634 81.9917 160.247C83.23 157.862 79.6166 155.73 78.358 158.126Z" fill="#FDF5F1"/>
<path d="M121.607 165.556L117.679 157.659C116.471 155.233 112.848 157.364 114.045 159.78L115.619 162.957C115.159 163.026 114.732 163.231 114.39 163.546L114.238 163.323C113.385 162.074 112.722 160.706 112.269 159.263C112.172 158.966 112.01 158.694 111.796 158.466C111.582 158.238 111.32 158.06 111.03 157.945C110.739 157.83 110.427 157.78 110.115 157.799C109.803 157.818 109.499 157.905 109.224 158.055C109.014 157.836 108.759 157.665 108.477 157.554C108.194 157.444 107.891 157.395 107.589 157.412C107.286 157.43 106.99 157.513 106.722 157.655C106.455 157.797 106.221 157.996 106.037 158.237C105.612 158.094 105.153 158.089 104.725 158.222C104.296 158.355 103.921 158.62 103.652 158.978C103.121 158.762 102.532 158.741 101.987 158.917C101.378 156.887 98.1708 157.699 97.9982 159.861C97.558 159.754 97.0939 159.805 96.6874 160.005C96.2809 160.206 95.958 160.543 95.7754 160.958C95.5783 160.75 95.3442 160.582 95.0852 160.46C94.8314 158.308 91.5733 158.258 91.0252 160.278C90.5177 158.603 87.8178 158.126 87.0971 160.014C86.7013 158.379 84.2653 157.476 83.2807 159.354C81.7169 162.322 80.4193 165.423 79.4034 168.621C78.6726 170.925 82.0323 172.255 83.2503 170.245L86.1024 165.505C85.9041 167.457 85.8701 169.423 86.0009 171.382C86.1329 173.29 88.9343 174.427 89.9188 172.397C90.46 171.239 90.9378 170.053 91.35 168.844C91.4616 169.555 91.5834 170.265 91.7255 170.986C92.1417 173.016 95.3288 173.016 95.7855 170.986C96.0621 169.782 96.2588 168.561 96.3742 167.332C96.5975 168.651 96.8614 169.971 97.1659 171.29C97.2545 171.594 97.4101 171.874 97.6213 172.109C97.8325 172.345 98.094 172.53 98.3863 172.651C98.6786 172.771 98.9944 172.825 99.3102 172.807C99.626 172.79 99.9338 172.701 100.211 172.549C101.19 171.85 101.905 170.842 102.241 169.687C102.545 170.773 102.901 171.859 103.256 172.924C103.906 174.66 106.92 175.178 107.316 172.924C107.62 171.18 107.796 169.416 107.844 167.646C108.3 168.597 108.808 169.522 109.366 170.417C109.655 170.89 110.116 171.231 110.651 171.371C111.187 171.512 111.756 171.439 112.239 171.168C112.85 170.829 113.358 170.331 113.71 169.727C113.803 169.581 113.877 169.424 113.934 169.26L114.116 169.423C115.334 170.438 116.989 170.884 118.176 169.423C118.402 169.143 118.565 168.817 118.653 168.469C119.063 168.673 119.525 168.744 119.977 168.672C120.428 168.6 120.846 168.388 121.171 168.068C121.497 167.747 121.714 167.332 121.792 166.881C121.87 166.431 121.805 165.967 121.607 165.556Z" fill="#FDF5F1"/>
<path d="M209.151 196.442C209.151 196.442 250.461 181.369 237.185 161.414C223.909 141.459 190.982 154.309 180.883 169.281" fill="#EFD3C7"/>
<path d="M197.387 198.705C214.905 198.705 229.106 184.504 229.106 166.987C229.106 149.469 214.905 135.268 197.387 135.268C179.869 135.268 165.668 149.469 165.668 166.987C165.668 184.504 179.869 198.705 197.387 198.705Z" fill="white"/>
<path d="M206.045 136.527C214.815 145.662 219.778 159.151 217.21 171.29C213.556 188.87 197.763 197.021 182.548 195.122C186.476 197.166 190.788 198.364 195.207 198.639C199.626 198.915 204.054 198.263 208.206 196.724C212.358 195.186 216.142 192.795 219.314 189.706C222.486 186.617 224.976 182.898 226.624 178.788C228.272 174.678 229.041 170.269 228.882 165.844C228.723 161.42 227.64 157.077 225.701 153.096C223.763 149.115 221.012 145.584 217.627 142.731C214.242 139.877 210.296 137.764 206.045 136.527Z" fill="#EAE8E5"/>
<path d="M197.245 153.741C210.654 153.741 221.524 142.871 221.524 129.462C221.524 116.053 210.654 105.183 197.245 105.183C183.836 105.183 172.966 116.053 172.966 129.462C172.966 142.871 183.836 153.741 197.245 153.741Z" fill="white"/>
<path d="M203.893 106.148C204.36 106.635 204.797 107.163 205.233 107.65C211.11 111.862 214.967 118.348 215.129 127.402C215.282 135.745 212.906 144.809 205.944 150.006C203.327 151.926 200.295 153.202 197.093 153.731C202.938 153.727 208.586 151.615 212.999 147.782C217.412 143.95 220.294 138.653 221.116 132.866C221.938 127.079 220.644 121.19 217.473 116.28C214.302 111.37 209.466 107.768 203.853 106.137L203.893 106.148Z" fill="#EAE8E5"/>
<path d="M201.985 104.483C201.985 104.483 197.011 94.13 195.134 94.6071C190.946 95.6452 186.925 97.2646 183.187 99.4182L185.938 111.253C185.938 111.253 196.555 113.973 201.985 104.483Z" fill="#68E1FD"/>
<path d="M214.683 126.783C216.011 126.783 217.088 125.706 217.088 124.377C217.088 123.048 216.011 121.971 214.683 121.971C213.354 121.971 212.277 123.048 212.277 124.377C212.277 125.706 213.354 126.783 214.683 126.783Z" fill="#185543"/>
<path d="M194.981 128.305C196.31 128.305 197.387 127.228 197.387 125.9C197.387 124.571 196.31 123.494 194.981 123.494C193.653 123.494 192.576 124.571 192.576 125.9C192.576 127.228 193.653 128.305 194.981 128.305Z" fill="#185543"/>
<path d="M205.487 128.305C205.487 128.305 215.2 130.985 214.784 133.38C214.368 135.775 203.914 133.38 203.914 133.38C203.914 133.38 202.269 129.208 205.487 128.305Z" fill="#ED7B2E"/>
<path d="M204.462 136.537C204.111 137.088 203.633 137.546 203.067 137.873C202.502 138.2 201.866 138.386 201.214 138.414C200.639 138.409 200.09 138.179 199.684 137.772C199.277 137.366 199.047 136.817 199.041 136.242C199.041 135.973 198.935 135.715 198.744 135.525C198.554 135.334 198.296 135.227 198.026 135.227C197.757 135.227 197.499 135.334 197.309 135.525C197.118 135.715 197.011 135.973 197.011 136.242C197.02 137.179 197.34 138.086 197.92 138.821C198.501 139.556 199.31 140.077 200.219 140.302C201.289 140.499 202.393 140.384 203.399 139.97C204.405 139.556 205.271 138.861 205.893 137.968C206.695 136.953 205.263 135.512 204.462 136.537Z" fill="#185543"/>
<path d="M204.208 157.283C203.939 157.283 203.681 157.39 203.49 157.581C203.3 157.771 203.193 158.029 203.193 158.298C203.193 158.568 203.3 158.826 203.49 159.016C203.681 159.206 203.939 159.313 204.208 159.313C204.477 159.313 204.735 159.206 204.926 159.016C205.116 158.826 205.223 158.568 205.223 158.298C205.223 158.029 205.116 157.771 204.926 157.581C204.735 157.39 204.477 157.283 204.208 157.283Z" fill="#185543"/>
<path d="M205.091 162.998C204.822 162.998 204.564 163.105 204.373 163.295C204.183 163.485 204.076 163.744 204.076 164.013C204.076 164.282 204.183 164.54 204.373 164.73C204.564 164.921 204.822 165.028 205.091 165.028C205.36 165.028 205.618 164.921 205.809 164.73C205.999 164.54 206.106 164.282 206.106 164.013C206.106 163.744 205.999 163.485 205.809 163.295C205.618 163.105 205.36 162.998 205.091 162.998Z" fill="#185543"/>
<path d="M205.527 168.722C205.258 168.722 205 168.829 204.81 169.02C204.619 169.21 204.512 169.468 204.512 169.737C204.512 170.007 204.619 170.265 204.81 170.455C205 170.645 205.258 170.752 205.527 170.752C205.797 170.752 206.055 170.645 206.245 170.455C206.435 170.265 206.542 170.007 206.542 169.737C206.542 169.468 206.435 169.21 206.245 169.02C206.055 168.829 205.797 168.722 205.527 168.722Z" fill="#185543"/>
<path d="M176.346 148.402L157.69 136.313C157.064 134.653 156.532 132.959 156.097 131.238C156.026 130.979 155.854 130.758 155.62 130.625C155.386 130.491 155.108 130.457 154.848 130.528C154.589 130.599 154.368 130.771 154.235 131.005C154.101 131.239 154.067 131.517 154.138 131.776C154.463 133.106 154.869 134.405 155.315 135.694C155.262 135.75 155.214 135.811 155.173 135.877L151.692 135.349C150.413 135.156 149.865 137.115 151.154 137.308L156.635 138.13H156.716L175.321 150.188C176.417 150.868 177.432 149.113 176.346 148.402Z" fill="#185543"/>
<path d="M231.907 121.038C231.277 121.984 230.549 122.862 229.735 123.656L228.131 121.068C227.441 119.962 225.685 120.977 226.375 122.083L228.405 125.412C228.352 125.494 228.311 125.583 228.284 125.676C226.575 132.98 224.423 140.173 221.838 147.215C221.392 148.443 223.351 148.97 223.797 147.752C226.382 140.711 228.534 133.518 230.243 126.214C230.26 126.107 230.26 125.997 230.243 125.889C231.539 124.77 232.673 123.475 233.612 122.043C234.384 120.977 232.628 119.952 231.907 121.038Z" fill="#185543"/>
<path d="M322.019 146.707C317.451 146.707 317.441 153.812 322.019 153.812C326.597 153.812 326.607 146.707 322.019 146.707Z" fill="white"/>
<path d="M306.53 193.296C301.963 193.296 301.952 200.401 306.53 200.401C311.108 200.401 311.077 193.296 306.53 193.296Z" fill="white"/>
<path d="M264.722 201.862C260.155 201.862 260.145 208.967 264.722 208.967C269.3 208.967 269.31 201.862 264.722 201.862Z" fill="white"/>
<path d="M174.225 209.901C169.657 209.901 169.647 217.006 174.225 217.006C178.802 217.006 178.802 209.901 174.225 209.901Z" fill="white"/>
<path d="M138.882 138.678C134.315 138.678 134.305 145.783 138.882 145.783C143.46 145.783 143.46 138.678 138.882 138.678Z" fill="white"/>
<path d="M200.463 71.7391C195.895 71.7391 195.885 78.8441 200.463 78.8441C205.04 78.8441 205.03 71.7391 200.463 71.7391Z" fill="white"/>
<path d="M257.81 120.52C256.873 120.536 255.978 120.915 255.315 121.578C254.652 122.241 254.273 123.135 254.258 124.073V124.58C254.258 125.522 254.632 126.426 255.298 127.092C255.964 127.758 256.868 128.133 257.81 128.133C258.752 128.133 259.656 127.758 260.322 127.092C260.988 126.426 261.363 125.522 261.363 124.58V124.042C261.344 123.108 260.963 122.219 260.3 121.561C259.637 120.904 258.744 120.53 257.81 120.52Z" fill="white"/>
<path d="M115.324 157.415C114.387 157.431 113.492 157.81 112.83 158.473C112.167 159.136 111.787 160.03 111.772 160.968V161.506C111.772 161.972 111.864 162.434 112.042 162.865C112.221 163.296 112.482 163.688 112.812 164.018C113.142 164.348 113.534 164.609 113.965 164.788C114.396 164.966 114.858 165.058 115.324 165.058C115.791 165.058 116.253 164.966 116.684 164.788C117.115 164.609 117.506 164.348 117.836 164.018C118.166 163.688 118.428 163.296 118.606 162.865C118.785 162.434 118.877 161.972 118.877 161.506V160.968C118.866 160.029 118.489 159.131 117.825 158.467C117.161 157.803 116.263 157.426 115.324 157.415Z" fill="white"/>
<path d="M134.599 106.016C130.032 106.016 130.022 113.121 134.599 113.121C139.177 113.121 139.177 106.016 134.599 106.016Z" fill="white"/>
<path d="M194.576 60.4929C193.638 60.5086 192.744 60.8879 192.081 61.5508C191.418 62.2136 191.039 63.1081 191.023 64.0454V64.5834C191.023 65.5256 191.397 66.4291 192.064 67.0954C192.73 67.7616 193.633 68.1359 194.576 68.1359C195.518 68.1359 196.421 67.7616 197.088 67.0954C197.754 66.4291 198.128 65.5256 198.128 64.5834V64.0454C198.117 63.1065 197.74 62.209 197.076 61.5451C196.412 60.8811 195.514 60.5035 194.576 60.4929Z" fill="white"/>
<path d="M343.984 159.953C343.714 159.953 343.456 160.06 343.266 160.25C343.075 160.44 342.969 160.699 342.969 160.968C342.969 161.237 343.075 161.495 343.266 161.685C343.456 161.876 343.714 161.983 343.984 161.983C344.253 161.983 344.511 161.876 344.701 161.685C344.892 161.495 344.999 161.237 344.999 160.968C344.999 160.699 344.892 160.44 344.701 160.25C344.511 160.06 344.253 159.953 343.984 159.953Z" fill="white"/>
<path d="M314.528 176.558C314.259 176.558 314.001 176.665 313.81 176.855C313.62 177.046 313.513 177.304 313.513 177.573C313.513 177.842 313.62 178.101 313.81 178.291C314.001 178.481 314.259 178.588 314.528 178.588C314.797 178.588 315.056 178.481 315.246 178.291C315.436 178.101 315.543 177.842 315.543 177.573C315.543 177.304 315.436 177.046 315.246 176.855C315.056 176.665 314.797 176.558 314.528 176.558Z" fill="white"/>
<path d="M264.722 226.354C264.453 226.354 264.195 226.461 264.004 226.651C263.814 226.842 263.707 227.1 263.707 227.369C263.707 227.638 263.814 227.896 264.004 228.087C264.195 228.277 264.453 228.384 264.722 228.384C264.991 228.384 265.25 228.277 265.44 228.087C265.63 227.896 265.737 227.638 265.737 227.369C265.737 227.1 265.63 226.842 265.44 226.651C265.25 226.461 264.991 226.354 264.722 226.354Z" fill="white"/>
<path d="M212.835 240.757V241.305C212.835 241.574 212.942 241.832 213.133 242.023C213.323 242.213 213.581 242.32 213.85 242.32C214.12 242.32 214.378 242.213 214.568 242.023C214.758 241.832 214.865 241.574 214.865 241.305V240.767C214.867 240.498 214.761 240.239 214.572 240.048C214.382 239.857 214.125 239.748 213.855 239.747C213.586 239.746 213.328 239.851 213.136 240.041C212.945 240.23 212.837 240.488 212.835 240.757Z" fill="white"/>
<path d="M260.5 155.619V158.836C260.5 159.105 260.607 159.364 260.797 159.554C260.987 159.744 261.246 159.851 261.515 159.851C261.784 159.851 262.042 159.744 262.232 159.554C262.423 159.364 262.53 159.105 262.53 158.836V155.619C262.53 155.35 262.423 155.091 262.232 154.901C262.042 154.711 261.784 154.604 261.515 154.604C261.246 154.604 260.987 154.711 260.797 154.901C260.607 155.091 260.5 155.35 260.5 155.619Z" fill="white"/>
<path d="M252.41 94.6273C252.141 94.6273 251.883 94.7343 251.693 94.9246C251.502 95.115 251.395 95.3731 251.395 95.6423C251.395 95.9115 251.502 96.1697 251.693 96.36C251.883 96.5504 252.141 96.6573 252.41 96.6573C252.679 96.6573 252.938 96.5504 253.128 96.36C253.318 96.1697 253.425 95.9115 253.425 95.6423C253.425 95.3731 253.318 95.115 253.128 94.9246C252.938 94.7343 252.679 94.6273 252.41 94.6273Z" fill="white"/>
<path d="M118.004 201.192C117.735 201.192 117.477 201.299 117.286 201.489C117.096 201.68 116.989 201.938 116.989 202.207C116.989 202.476 117.096 202.735 117.286 202.925C117.477 203.115 117.735 203.222 118.004 203.222C118.273 203.222 118.531 203.115 118.722 202.925C118.912 202.735 119.019 202.476 119.019 202.207C119.019 201.938 118.912 201.68 118.722 201.489C118.531 201.299 118.273 201.192 118.004 201.192Z" fill="white"/>
<path d="M80.5199 94.13C80.2507 94.13 79.9926 94.2369 79.8022 94.4273C79.6119 94.6176 79.5049 94.8758 79.5049 95.145C79.5049 95.4142 79.6119 95.6724 79.8022 95.8627C79.9926 96.0531 80.2507 96.16 80.5199 96.16C80.7891 96.16 81.0473 96.0531 81.2377 95.8627C81.428 95.6724 81.5349 95.4142 81.5349 95.145C81.5349 94.8758 81.428 94.6176 81.2377 94.4273C81.0473 94.2369 80.7891 94.13 80.5199 94.13Z" fill="white"/>
<path d="M119.608 64.6341H119.07C118.8 64.6341 118.542 64.741 118.352 64.9314C118.162 65.1217 118.055 65.3799 118.055 65.6491C118.055 65.9183 118.162 66.1765 118.352 66.3668C118.542 66.5572 118.8 66.6641 119.07 66.6641H119.608C119.877 66.6641 120.135 66.5572 120.325 66.3668C120.516 66.1765 120.623 65.9183 120.623 65.6491C120.623 65.3799 120.516 65.1217 120.325 64.9314C120.135 64.741 119.877 64.6341 119.608 64.6341Z" fill="white"/>
</svg>
