<svg width="372" height="269" viewBox="0 0 372 269" fill="none" xmlns="http://www.w3.org/2000/svg">
<path d="M176.199 265.966L7.94251 166.496C2.58331 163.451 -2.00449 158.549 3.21261 155.331L172.078 58.0233C174.616 56.4501 178.462 55.4249 181.03 56.917L357.64 159.432C363 162.538 363.954 171.236 358.595 174.342L198.387 265.804C195.023 267.762 191.207 268.808 187.315 268.836C183.423 268.865 179.591 267.875 176.199 265.966Z" fill="#68E1FD"/>
<path d="M152.499 85.9662L167.338 78.7597C167.627 78.6352 167.937 78.5709 168.252 78.5709C168.566 78.5709 168.877 78.6352 169.165 78.7597L181.294 83.175H181.376L166.536 90.3815H166.455L154.326 86.0068C154.04 85.8758 153.731 85.8047 153.416 85.7977C153.102 85.7907 152.79 85.8481 152.499 85.9662Z" fill="#DB893E"/>
<path d="M183.03 90.7063L168.191 97.9128C170.353 96.8978 169.835 91.6401 166.536 90.3713L181.376 83.175C184.674 84.4437 185.182 89.6608 183.03 90.7063Z" fill="#DB893E"/>
<path d="M169.419 118.629L184.258 111.422C184.542 111.283 184.853 111.205 185.17 111.194C185.487 111.184 185.802 111.241 186.095 111.362L171.256 118.568C170.963 118.447 170.648 118.39 170.331 118.401C170.014 118.411 169.703 118.489 169.419 118.629Z" fill="#DB893E"/>
<path d="M178.107 124.191L163.268 131.398H163.359L173.113 126.13C175.773 124.699 173.834 119.613 171.246 118.619L186.085 111.412C188.663 112.427 190.612 117.502 187.953 118.923L178.199 124.191H178.107Z" fill="#DB893E"/>
<path d="M184.552 138.777L199.392 131.57C199.672 131.447 199.974 131.383 200.28 131.383C200.586 131.383 200.888 131.447 201.168 131.57L186.329 138.777C186.049 138.653 185.746 138.59 185.441 138.59C185.135 138.59 184.832 138.653 184.552 138.777Z" fill="#DB893E"/>
<path d="M198.022 150.51L183.182 157.717C183.651 157.454 184.011 157.033 184.197 156.529L189.272 145.12C190.379 142.613 188.338 139.579 186.298 138.787L201.138 131.58C203.168 132.362 205.198 135.407 204.112 137.914L199.037 149.323C198.85 149.826 198.49 150.247 198.022 150.51Z" fill="#DB893E"/>
<path d="M160.7 53.74L175.539 46.5335C175.839 46.3912 176.166 46.3132 176.498 46.3045C176.83 46.2957 177.16 46.3565 177.468 46.4828L162.608 53.74C162.307 53.6087 161.982 53.5409 161.654 53.5409C161.326 53.5409 161.001 53.6087 160.7 53.74Z" fill="#DB893E"/>
<path d="M207.289 147.424L222.128 140.218C222.472 140.069 222.844 139.992 223.219 139.992C223.594 139.992 223.966 140.069 224.31 140.218L209.471 147.424C209.126 147.276 208.755 147.199 208.38 147.199C208.004 147.199 207.633 147.276 207.289 147.424Z" fill="#DB893E"/>
<path d="M228.705 162.426L213.866 169.633C214.789 169.186 215.368 168.07 215.043 166.253C214.143 161.245 213.24 156.238 212.333 151.231C212.224 150.405 211.905 149.621 211.405 148.954C210.906 148.288 210.243 147.761 209.481 147.425L224.32 140.218C225.082 140.554 225.745 141.081 226.245 141.748C226.744 142.414 227.064 143.198 227.172 144.024C228.072 149.038 228.976 154.046 229.882 159.046C230.207 160.863 229.629 161.969 228.705 162.426Z" fill="#DB893E"/>
<path d="M187.161 67.3004L172.322 74.5069C173.773 73.8066 174.514 71.5837 172.961 69.0665L164.689 55.6482C164.221 54.803 163.491 54.1331 162.608 53.74L177.447 46.5335C178.335 46.9274 179.07 47.6012 179.538 48.4519L187.8 61.86C189.353 64.3772 188.602 66.6001 187.161 67.3004Z" fill="#DB893E"/>
<path d="M225.772 139.173L240.611 131.966C240.911 131.824 241.238 131.746 241.57 131.737C241.902 131.728 242.232 131.789 242.54 131.915L227.69 139.122C227.384 138.997 227.056 138.937 226.726 138.946C226.395 138.955 226.071 139.032 225.772 139.173Z" fill="#DB893E"/>
<path d="M252.263 152.703L237.424 159.909C238.875 159.209 239.616 156.976 238.063 154.458L229.791 141.03C229.322 140.179 228.588 139.506 227.7 139.112L242.54 131.905C243.427 132.299 244.162 132.973 244.63 133.824L252.903 147.232C254.456 149.769 253.704 151.992 252.263 152.703Z" fill="#DB893E"/>
<path d="M184.502 75.8162L199.341 68.6098C203.898 66.3971 209.491 66.1941 215.449 68.4981L200.61 75.7046C194.631 73.4005 189.049 73.6035 184.502 75.8162Z" fill="#DB893E"/>
<path d="M184.228 44.0569L199.067 36.8504C199.411 36.7016 199.783 36.6248 200.158 36.6248C200.533 36.6248 200.905 36.7016 201.249 36.8504L186.41 44.0569C186.065 43.9081 185.694 43.8313 185.319 43.8313C184.944 43.8313 184.572 43.9081 184.228 44.0569Z" fill="#DB893E"/>
<path d="M205.644 59.0484L190.805 66.2549C191.729 65.8083 192.307 64.6918 191.982 62.875C191.082 57.8676 190.179 52.8603 189.272 47.853C189.165 47.0252 188.847 46.2391 188.347 45.5706C187.847 44.902 187.184 44.3737 186.42 44.0366L201.259 36.8301C202.023 37.1672 202.687 37.6955 203.186 38.3641C203.686 39.0326 204.005 39.8187 204.112 40.6465C205.012 45.6538 205.915 50.6611 206.822 55.6685C207.146 57.4853 206.568 58.6018 205.644 59.0484Z" fill="#DB893E"/>
<path d="M229.659 131.134L214.82 138.34C221.468 135.113 225.934 127.602 226.239 117.32C226.756 99.9936 215.277 81.3582 200.6 75.7046L215.439 68.4981C230.126 74.1517 241.606 92.7769 241.078 110.113C240.773 120.385 236.307 127.896 229.659 131.134Z" fill="#DB893E"/>
<path d="M214.901 55.973L229.72 48.7665C230 48.6432 230.302 48.5795 230.608 48.5795C230.914 48.5795 231.216 48.6432 231.496 48.7665L216.657 55.973C216.38 55.8526 216.081 55.7905 215.779 55.7905C215.477 55.7905 215.178 55.8526 214.901 55.973Z" fill="#DB893E"/>
<path d="M228.38 67.6963L213.541 74.9028C214.009 74.6392 214.368 74.2185 214.556 73.7152L219.631 62.3066C220.737 59.8097 218.707 56.7647 216.667 55.9832L231.506 48.7767C233.536 49.5582 235.566 52.6032 234.47 55.1001L229.395 66.5087C229.208 67.012 228.848 67.4327 228.38 67.6963Z" fill="#DB893E"/>
<path d="M234.795 82.2818L249.655 75.055C249.939 74.915 250.25 74.8372 250.567 74.8267C250.883 74.8162 251.199 74.8733 251.492 74.9941L236.652 82.2006C236.355 82.0799 236.035 82.0247 235.715 82.0387C235.394 82.0527 235.081 82.1356 234.795 82.2818Z" fill="#DB893E"/>
<path d="M243.514 87.8338L228.705 95.0403H228.796L238.54 89.7826C241.2 88.3515 239.261 83.2663 236.673 82.2716L251.492 75.055C254.07 76.07 256.019 81.145 253.359 82.566L243.615 87.8237L243.514 87.8338Z" fill="#DB893E"/>
<path d="M230.948 114.752L245.787 107.545C246.076 107.421 246.387 107.356 246.701 107.356C247.015 107.356 247.326 107.421 247.614 107.545L259.744 111.92H259.825L244.945 119.167H244.864L232.765 114.762C232.479 114.637 232.17 114.572 231.858 114.57C231.545 114.568 231.236 114.63 230.948 114.752Z" fill="#DB893E"/>
<path d="M261.469 119.492L246.63 126.698C248.792 125.683 248.274 120.426 244.975 119.157L259.815 111.95C263.114 113.219 263.631 118.446 261.469 119.492Z" fill="#DB893E"/>
<path d="M166.536 90.3815C170.596 91.9344 170.434 99.3744 166.364 97.9128L154.234 93.5381H154.153C150.093 91.9852 150.256 84.5452 154.326 86.0068L166.455 90.3815H166.536Z" fill="url(#paint0_radial_1_63)"/>
<path d="M171.256 118.578C173.834 119.593 175.783 124.668 173.124 126.089L163.37 131.357C163.077 131.516 162.754 131.607 162.422 131.625C162.09 131.642 161.758 131.585 161.451 131.459C158.873 130.444 156.924 125.369 159.584 123.948L169.328 118.7C169.619 118.537 169.944 118.441 170.278 118.42C170.612 118.399 170.946 118.453 171.256 118.578Z" fill="url(#paint1_radial_1_63)"/>
<path d="M186.329 138.787C188.359 139.568 190.389 142.613 189.303 145.12L184.228 156.529C184.136 156.804 183.986 157.056 183.789 157.268C183.592 157.48 183.351 157.647 183.084 157.759C182.817 157.87 182.529 157.923 182.239 157.914C181.95 157.905 181.666 157.834 181.406 157.706C179.376 156.925 177.346 153.88 178.442 151.383C180.127 147.58 181.819 143.777 183.517 139.974C183.608 139.7 183.757 139.449 183.953 139.236C184.149 139.024 184.388 138.856 184.654 138.744C184.92 138.631 185.207 138.577 185.496 138.585C185.785 138.592 186.069 138.661 186.329 138.787Z" fill="url(#paint2_radial_1_63)"/>
<path d="M209.471 147.414C210.233 147.751 210.896 148.277 211.395 148.944C211.895 149.611 212.214 150.395 212.323 151.221C213.223 156.235 214.126 161.242 215.033 166.243C215.591 169.288 213.581 170.363 211.683 169.633C210.92 169.296 210.256 168.767 209.757 168.099C209.257 167.43 208.938 166.644 208.831 165.816C207.931 160.809 207.025 155.802 206.111 150.794C205.563 147.749 207.573 146.684 209.471 147.414Z" fill="url(#paint3_radial_1_63)"/>
<path d="M162.608 53.74C163.496 54.1339 164.23 54.8077 164.699 55.6583L172.971 69.0766C175.133 72.5784 172.839 75.5117 170.393 74.5678C169.505 74.1739 168.771 73.5001 168.302 72.6494L160.04 59.2413C157.868 55.7192 160.162 52.7859 162.608 53.74Z" fill="url(#paint4_radial_1_63)"/>
<path d="M227.69 139.122C228.578 139.516 229.312 140.189 229.781 141.04L238.053 154.448C240.215 157.96 237.921 160.894 235.485 159.96C234.597 159.566 233.863 158.892 233.394 158.041L225.122 144.623C222.97 141.111 225.264 138.178 227.69 139.122Z" fill="url(#paint5_radial_1_63)"/>
<path d="M186.41 44.0467C187.173 44.3838 187.837 44.9122 188.337 45.5807C188.836 46.2493 189.155 47.0354 189.262 47.8631C190.162 52.8705 191.065 57.8778 191.972 62.8851C192.53 65.9301 190.511 67.006 188.613 66.2752C187.85 65.939 187.188 65.4122 186.688 64.7456C186.188 64.079 185.869 63.2949 185.76 62.469C184.86 57.4549 183.954 52.4442 183.04 47.4368C182.502 44.3817 184.512 43.3159 186.41 44.0467Z" fill="url(#paint6_radial_1_63)"/>
<path d="M200.6 75.7046C215.287 81.3582 226.766 99.9834 226.239 117.32C225.711 134.656 213.389 144.116 198.712 138.462C184.035 132.809 172.545 114.183 173.073 96.8471C173.601 79.5109 185.923 70.0511 200.6 75.7046Z" fill="url(#paint7_radial_1_63)"/>
<path d="M216.677 55.9832C218.707 56.7647 220.737 59.8097 219.641 62.3066L214.566 73.7152C214.474 73.9899 214.325 74.2417 214.127 74.4537C213.93 74.6658 213.69 74.8332 213.423 74.9447C213.155 75.0563 212.867 75.1093 212.578 75.1003C212.288 75.0913 212.004 75.0205 211.744 74.8926C209.714 74.1111 207.684 71.0661 208.78 68.559C210.472 64.7629 212.164 60.96 213.855 57.1504C213.948 56.8766 214.099 56.6259 214.296 56.4149C214.494 56.204 214.735 56.0377 215.002 55.9272C215.269 55.8167 215.557 55.7645 215.846 55.7741C216.134 55.7838 216.418 55.8551 216.677 55.9832Z" fill="url(#paint8_radial_1_63)"/>
<path d="M236.652 82.231C239.231 83.246 241.179 88.321 238.52 89.742L228.776 94.9997C228.483 95.1599 228.157 95.2522 227.823 95.2697C227.49 95.2873 227.156 95.2297 226.848 95.1012C224.269 94.0862 222.331 89.0112 224.99 87.6004L234.734 82.3325C235.026 82.1739 235.35 82.0825 235.682 82.0649C236.014 82.0474 236.345 82.1041 236.652 82.231Z" fill="url(#paint9_radial_1_63)"/>
<path d="M244.945 119.167C249.005 120.72 248.843 128.16 244.772 126.698L232.643 122.324H232.562C228.502 120.771 228.664 113.331 232.735 114.792L244.945 119.136V119.167Z" fill="url(#paint10_radial_1_63)"/>
<g opacity="0.82">
<path d="M148.926 175.652C154.366 178.839 157.239 182.249 158.061 186.045L147.647 187.405C146.614 184.345 144.494 181.77 141.689 180.168C139.527 178.9 137.629 178.869 136.513 179.59C135.031 180.605 135.498 181.62 138.999 184.858C144.836 190.176 147.119 194.358 141.435 198.144C135.102 202.336 126.21 201.768 118.446 197.21C112.772 193.891 109.077 189.598 108.499 185.03L119.065 184.188C119.826 187.629 122.11 190.521 125.794 192.693C128.169 194.084 130.24 194.317 131.549 193.455C132.859 192.592 132.564 191.475 129.164 188.309C123.835 183.335 120.394 179.042 126.677 174.88C132.422 171.115 141.232 171.155 148.926 175.652Z" fill="#606060"/>
<path d="M231.75 224.747L201.209 244.976L193.434 240.429L196.499 221.327L179.752 232.421L170.962 227.285L201.493 207.046L209.775 211.897L206.822 230.299L222.96 219.601L231.75 224.747Z" fill="#606060"/>
<path d="M196.225 203.96L179.295 215.176C169.439 221.702 159.208 221.113 150.103 215.785C140.999 210.456 139.679 204.183 149.23 197.86L166.374 186.502L175.397 191.78L158.426 203.026C154.021 205.939 154.265 208.7 157.828 210.791C161.39 212.882 165.734 212.912 170.008 210.08L187.191 198.682L196.225 203.96Z" fill="#606060"/>
</g>
<path style="mix-blend-mode:multiply" opacity="0.46" d="M12.2461 158.935L86.9602 136.605L95.8516 148.165L55.4851 183.66L12.2461 158.935Z" fill="url(#paint11_linear_1_63)"/>
<path d="M80.9617 34.2114L85.3566 0.868652V30.9939" fill="#6A9546"/>
<path d="M75.5212 7.99396C88.1681 15.1802 83.6412 39.9462 82.2304 46.564C81.9969 47.579 81.8447 48.1981 81.8447 48.1981" fill="#6A9546"/>
<path d="M60.824 13.5866L79.7436 29.8266L79.2767 17.4944C79.2767 17.4944 80.6774 7.34435 70.2838 6.32935C59.8902 5.31435 60.824 13.5866 60.824 13.5866Z" fill="#6A9546"/>
<path d="M84.3618 150.5C82.6002 150.291 80.8974 149.735 79.3521 148.864C77.8067 147.993 76.4495 146.824 75.3588 145.425C81.3574 107.799 77.2264 35.8658 77.2264 35.8658L82.3014 35.1959C92.1164 63.4231 94.8671 135.011 95.3238 149.231C92.2078 150.886 87.8331 151.007 84.3618 150.5Z" fill="#D8876A"/>
<path d="M107.514 7.88232C123.064 7.19212 133.214 24.4167 133.214 24.4167L82.545 43.7423L80.444 31.1867" fill="#85B23B"/>
<path d="M84.1995 28.5376C84.1995 28.5376 91.9744 8.56237 107.544 7.88232L84.1995 28.5376Z" fill="#85B23B"/>
<path d="M137.243 40.2506C135.423 40.2506 133.603 40.2912 131.783 40.3724L128.291 33.5313L129.631 40.4435C124.667 40.6262 119.714 40.8799 114.761 41.1641L110.295 41.4382C109.937 39.3672 109.252 37.3663 108.265 35.5106C108.052 35.2162 108.214 38.5556 108.397 41.6006C99.6714 42.108 91.009 43.3989 82.5145 45.4576L83.3773 42.8287C83.3773 42.8287 86.605 27.0455 113.178 20.9149C139.75 14.7843 156.478 40.8799 156.478 40.8799L155.95 40.9307C149.799 39.9258 143.496 40.1593 137.243 40.2506Z" fill="#6A9546"/>
<path d="M75.5212 7.99395C60.8849 -0.329052 56.2362 16.6113 56.2362 16.6113L75.5212 7.99395Z" fill="#6A9546"/>
<path d="M82.545 43.7422C82.545 43.7422 86.1787 30.7299 68.335 17.6973C50.4913 4.66473 30.5872 16.3169 30.5872 16.3169L42.96 26.1929L51.9935 22.5287L46.9794 29.0856L57.4745 36.1297C57.4745 36.1297 64.275 31.613 66.4573 30.395C66.9648 30.1108 61.8187 38.6469 61.8187 38.6469L81.8447 48.2387L82.545 43.7422Z" fill="#85B23B"/>
<path d="M70.3651 47.2947L69.7459 41.4889L68.0712 47.8631C62.8845 49.2029 57.7689 50.7762 52.633 52.4509L51.2019 47.3759L50.7857 53.0701C48.0148 53.9734 45.254 54.8666 42.5541 55.8512L41.5391 49.5277L40.5241 56.6327C37.223 57.8773 34.0514 59.441 31.0541 61.3017C30.0391 47.7819 43.8228 31.6739 58.8753 29.6743C74.1003 27.6443 82.5755 43.7727 82.5755 43.7727L78.5866 45.5997C75.7953 46.0463 73.065 46.635 70.3651 47.2947Z" fill="#6A9546"/>
<path d="M111.747 51.2837L112.559 48.127L111.209 51.0807C107.468 49.7381 103.66 48.593 99.8 47.65L99.9928 43.7016L98.653 47.3658C93.1562 46.0683 87.5877 45.0956 81.9766 44.4527C83.0322 42.7171 87.62 36.485 99.1402 34.455C111.767 32.1814 122.404 46.7568 122.658 55.567L121.115 55.3234C118.065 53.813 114.938 52.4646 111.747 51.2837Z" fill="#85B23B"/>
<path style="mix-blend-mode:multiply" opacity="0.46" d="M240.733 189.334L315.447 167.004L324.338 178.585L283.962 213.988L240.733 189.334Z" fill="url(#paint12_linear_1_63)"/>
<path d="M313.072 90.4526L316.492 64.5396V87.9557" fill="#6A9546"/>
<path d="M308.89 70.0714C318.725 75.664 315.244 94.9186 314.107 100.065C313.924 100.877 313.813 101.333 313.813 101.333" fill="#6A9546"/>
<path d="M297.421 74.4257L312.128 87.0828L311.773 77.491C311.773 77.491 312.859 69.6146 304.779 68.7823C296.7 67.95 297.421 74.4257 297.421 74.4257Z" fill="#6A9546"/>
<path d="M315.721 180.879C314.35 180.715 313.025 180.281 311.822 179.602C310.62 178.922 309.565 178.011 308.717 176.92C313.376 147.658 310.169 91.7315 310.169 91.7315L314.127 91.2138C321.76 113.168 323.902 168.831 324.277 179.884C321.821 181.183 318.421 181.285 315.721 180.879Z" fill="#D8876A"/>
<path d="M333.727 69.98C345.816 69.4421 353.712 82.8299 353.712 82.8299L314.31 97.8621L312.676 88.1079" fill="#85B23B"/>
<path d="M315.589 86.0474C315.589 86.0474 321.679 70.5179 333.727 69.98L315.589 86.0474Z" fill="#85B23B"/>
<path d="M356.839 95.152C355.424 95.152 354.01 95.1825 352.596 95.2434L349.876 89.9248L350.891 95.3043C347.034 95.4464 343.177 95.6494 339.33 95.8625L335.859 96.0757C335.572 94.4643 335.031 92.9087 334.255 91.4676C334.092 91.2443 334.255 93.8021 334.356 96.1772C327.569 96.5867 320.833 97.6058 314.229 99.2222L314.899 97.1922C314.899 97.1922 317.467 84.8904 338.132 80.13C358.798 75.3697 371.82 95.6494 371.82 95.6494H371.414C366.603 94.9084 361.67 95.0911 356.839 95.152Z" fill="#6A9546"/>
<path d="M308.89 70.0713C297.502 63.5956 293.888 76.7703 293.888 76.7703L308.89 70.0713Z" fill="#6A9546"/>
<path d="M314.31 97.8722C314.31 97.8722 317.132 87.7222 303.267 77.5722C289.402 67.4222 273.913 76.4963 273.913 76.4963L283.515 84.19L290.539 81.348L286.641 86.423L294.761 91.8939C294.761 91.8939 300.029 88.382 301.765 87.4076C302.161 87.1843 298.161 93.8224 298.161 93.8224L313.732 101.283L314.31 97.8722Z" fill="#85B23B"/>
<path d="M304.83 100.633L304.343 96.1264L303.044 101.09C298.984 102.105 295.035 103.353 291.036 104.652L289.92 100.694L289.595 105.119C287.443 105.82 285.291 106.52 283.19 107.281L282.358 102.358L281.607 107.87C279.038 108.838 276.57 110.055 274.238 111.504C273.446 100.988 284.165 88.4631 295.867 86.9102C307.743 85.3268 314.29 97.8722 314.29 97.8722L311.194 99.2932C309.062 99.6687 306.941 100.125 304.83 100.633Z" fill="#6A9546"/>
<path d="M337.016 103.729L337.645 101.283L336.63 103.587C333.719 102.531 330.754 101.63 327.749 100.887L327.891 97.8417L326.876 100.694C322.584 99.6732 318.236 98.9072 313.853 98.4C314.686 97.0703 318.258 92.2592 327.211 90.6454C337.026 88.8793 345.298 100.207 345.481 107.058L344.293 106.875C341.924 105.699 339.495 104.649 337.016 103.729Z" fill="#85B23B"/>
<defs>
<radialGradient id="paint0_radial_1_63" cx="0" cy="0" r="1" gradientUnits="userSpaceOnUse" gradientTransform="translate(160.345 91.9446) scale(7.7952 7.7952)">
<stop stop-color="#FCEE21"/>
<stop offset="1" stop-color="#FFC745"/>
</radialGradient>
<radialGradient id="paint1_radial_1_63" cx="0" cy="0" r="1" gradientUnits="userSpaceOnUse" gradientTransform="translate(166.343 125.013) scale(7.35875 7.35875)">
<stop stop-color="#FCEE21"/>
<stop offset="1" stop-color="#FFC745"/>
</radialGradient>
<radialGradient id="paint2_radial_1_63" cx="0" cy="0" r="1" gradientUnits="userSpaceOnUse" gradientTransform="translate(183.872 148.247) scale(7.9373 7.93729)">
<stop stop-color="#FCEE21"/>
<stop offset="1" stop-color="#FFC745"/>
</radialGradient>
<radialGradient id="paint3_radial_1_63" cx="0" cy="0" r="1" gradientUnits="userSpaceOnUse" gradientTransform="translate(210.577 158.529) scale(8.63764 8.63765)">
<stop stop-color="#FCEE21"/>
<stop offset="1" stop-color="#FFC745"/>
</radialGradient>
<radialGradient id="paint4_radial_1_63" cx="0" cy="0" r="1" gradientUnits="userSpaceOnUse" gradientTransform="translate(166.496 64.1437) scale(9.10454 9.10455)">
<stop stop-color="#FCEE21"/>
<stop offset="1" stop-color="#FFC745"/>
</radialGradient>
<radialGradient id="paint5_radial_1_63" cx="0" cy="0" r="1" gradientUnits="userSpaceOnUse" gradientTransform="translate(231.598 149.536) scale(9.10454 9.10455)">
<stop stop-color="#FCEE21"/>
<stop offset="1" stop-color="#FFC745"/>
</radialGradient>
<radialGradient id="paint6_radial_1_63" cx="0" cy="0" r="1" gradientUnits="userSpaceOnUse" gradientTransform="translate(187.516 55.161) scale(8.63765 8.63765)">
<stop stop-color="#FCEE21"/>
<stop offset="1" stop-color="#FFC745"/>
</radialGradient>
<radialGradient id="paint7_radial_1_63" cx="0" cy="0" r="1" gradientUnits="userSpaceOnUse" gradientTransform="translate(202.873 111.686) scale(38.7933 38.7933)">
<stop stop-color="#FCEE21"/>
<stop offset="1" stop-color="#FFC745"/>
</radialGradient>
<radialGradient id="paint8_radial_1_63" cx="0" cy="0" r="1" gradientUnits="userSpaceOnUse" gradientTransform="translate(214.221 65.4328) scale(7.93731 7.9373)">
<stop stop-color="#FCEE21"/>
<stop offset="1" stop-color="#FFC745"/>
</radialGradient>
<radialGradient id="paint9_radial_1_63" cx="0" cy="0" r="1" gradientUnits="userSpaceOnUse" gradientTransform="translate(231.75 88.6661) scale(7.35876 7.35875)">
<stop stop-color="#FCEE21"/>
<stop offset="1" stop-color="#FFC745"/>
</radialGradient>
<radialGradient id="paint10_radial_1_63" cx="0" cy="0" r="1" gradientUnits="userSpaceOnUse" gradientTransform="translate(238.784 120.73) scale(7.7952 7.7952)">
<stop stop-color="#FCEE21"/>
<stop offset="1" stop-color="#FFC745"/>
</radialGradient>
<linearGradient id="paint11_linear_1_63" x1="84.0472" y1="124.668" x2="41.7724" y2="165.42" gradientUnits="userSpaceOnUse">
<stop stop-color="#78B46A"/>
<stop offset="0.03" stop-color="#7F3500"/>
<stop offset="1" stop-color="white"/>
</linearGradient>
<linearGradient id="paint12_linear_1_63" x1="312.534" y1="155.067" x2="270.249" y2="195.82" gradientUnits="userSpaceOnUse">
<stop offset="0.14" stop-color="#833B08"/>
<stop offset="1" stop-color="white"/>
</linearGradient>
</defs>
</svg>
