<svg width="392" height="272" viewBox="0 0 392 272" fill="none" xmlns="http://www.w3.org/2000/svg">
<path d="M291.501 198.274C249.957 188.723 202.689 212.707 135.486 193.321C68.2825 173.934 97.545 94.1347 97.545 94.1347L126.848 77.235C122.991 83.325 121.123 90.6127 120.474 97.6974C119.57 107.655 120.91 118.363 125.437 127.366C135.445 147.24 160.485 153.756 180.958 154.446C194.346 154.923 207.875 153.045 221.05 150.873C235.26 148.529 249.348 145.413 263.518 142.753C292.11 137.364 321.738 134.268 350.219 142.114C365.911 146.438 379.309 154.537 391.58 164.332C392.039 162.23 391.837 160.037 391.004 158.054C390.17 156.07 388.744 154.392 386.921 153.248L195.442 42.0855C192.65 40.4615 188.479 41.578 185.728 43.2832L2.65264 148.792C-3.01106 152.304 1.97259 157.653 7.77839 160.912L190.194 268.735C193.875 270.804 198.032 271.877 202.255 271.846C206.478 271.816 210.619 270.684 214.27 268.562L314.542 211.316C309.355 205.49 301.996 200.679 291.501 198.274Z" fill="#8383EA"/>
<path d="M391.58 164.302C379.309 154.507 365.911 146.407 350.219 142.083C321.738 134.248 292.11 137.343 263.518 142.723C249.308 145.392 235.28 148.498 221.05 150.843C207.855 153.015 194.346 154.903 180.958 154.416C160.485 153.695 135.445 147.209 125.437 127.335C120.9 118.332 119.57 107.624 120.474 97.667C121.113 90.562 122.981 83.254 126.848 77.2046L97.545 94.1348C97.545 94.1348 68.3231 173.944 135.526 193.321C202.729 212.697 249.998 188.723 291.542 198.274C302.037 200.689 309.396 205.49 314.562 211.317L388.008 169.387C388.925 168.835 389.716 168.098 390.332 167.222C390.947 166.346 391.372 165.352 391.58 164.302Z" fill="#68E1FD"/>
<path style="mix-blend-mode:multiply" d="M250.028 212.037C256.189 208.708 287.421 191.463 287.421 191.463C286.558 188.905 285.736 186.591 283.188 184.886L228.48 204.8L250.028 212.037Z" fill="url(#paint0_linear_1_198)"/>
<path style="mix-blend-mode:multiply" d="M300.677 209.185C306.838 205.856 336.801 186.642 336.801 186.642C335.938 184.084 338.202 186.571 335.664 184.876L279.088 201.948L300.677 209.185Z" fill="url(#paint1_linear_1_198)"/>
<path style="mix-blend-mode:multiply" d="M147.727 125.843C149.757 126.787 151.117 127.995 153.076 129C159.237 125.671 167.286 118.992 173.548 115.805C172.685 113.247 170.442 111.4 167.905 109.715L140.5 121.57C142.347 122.443 145.94 125.001 147.727 125.843Z" fill="url(#paint2_linear_1_198)"/>
<path style="mix-blend-mode:multiply" d="M171.813 105.046C173.843 105.99 175.203 107.198 177.162 108.203C183.323 104.873 197.137 95.5659 197.137 95.5659C196.199 92.8497 194.39 90.5196 191.991 88.938L164.586 100.793C166.433 101.595 170.026 104.193 171.813 105.046Z" fill="url(#paint3_linear_1_198)"/>
<path style="mix-blend-mode:multiply" d="M201.461 121.012C203.491 121.956 204.851 123.164 206.81 124.169C212.971 120.839 226.785 111.532 226.785 111.532C225.847 108.816 224.038 106.486 221.639 104.904L194.234 116.759C196.081 117.612 199.674 120.17 201.461 121.012Z" fill="url(#paint4_linear_1_198)"/>
<path style="mix-blend-mode:multiply" d="M51.87 186.977C53.9 187.921 55.2601 189.129 57.219 190.133C63.3801 186.804 71.429 180.126 77.6916 176.938C76.8288 174.381 74.5857 172.533 72.0482 170.848L44.6432 182.704C46.4905 183.577 50.0836 186.134 51.87 186.977Z" fill="url(#paint5_linear_1_198)"/>
<path style="mix-blend-mode:multiply" d="M23.1455 169.6C25.1755 170.747 27.1547 171.884 29.1035 173.112C35.2646 169.052 41.385 164.992 47.678 161.165C46.8153 158.07 44.5721 155.826 42.0346 153.766L17.8066 166.311C19.6234 167.347 21.3591 168.585 23.1455 169.6Z" fill="url(#paint6_linear_1_198)"/>
<path d="M284.092 176.492C284.092 176.492 284.305 182.582 281.382 184.774C278.459 186.967 273.536 189.291 271.749 190.722C269.963 192.153 272.379 193.321 275.505 193.321C278.631 193.321 281.26 190.935 284.173 191.737C287.086 192.539 288.385 191.219 288.883 188.601C289.38 185.982 289.593 181.547 290.963 176.421" fill="#4E62D4"/>
<path d="M327.453 168.687C327.453 168.687 333.076 170.95 333.918 174.533C334.761 178.116 334.852 183.546 335.431 185.749C336.009 187.951 338.059 186.236 339.328 183.374C340.597 180.511 339.491 177.141 341.358 174.817C343.226 172.493 342.607 170.757 340.414 169.235C338.222 167.712 334.263 165.713 330.173 162.393" fill="#4E62D4"/>
<path d="M294.171 114.536C294.171 114.536 286.376 143.393 285.422 147.767C283.737 155.502 275.82 181.262 278.591 181.892C281.362 182.521 292.74 183.922 293.064 182.45C293.389 180.978 299.723 151.685 299.926 151.046C300.129 150.406 308.046 121.54 308.046 121.54L294.171 114.536Z" fill="#ED9B2F"/>
<path d="M336.151 162.292C328.985 155.634 314.288 143.007 314.197 142.459C314.085 141.799 312.339 121.814 312.339 121.814L298.129 112.801C298.129 112.801 297.662 145.788 300.332 149.341C304.564 155.035 319.617 167.215 328.376 172.604C331.831 169.911 334.513 166.354 336.151 162.292Z" fill="#FBB03B"/>
<path d="M331.239 112.76C332.254 113.247 333.269 113.775 334.416 114.161C336.339 114.202 338.264 114.141 340.181 113.978C340.974 113.783 341.793 113.718 342.607 113.785C342.763 113.781 342.919 113.812 343.061 113.878C343.203 113.943 343.328 114.041 343.426 114.163C343.525 114.284 343.593 114.427 343.627 114.58C343.661 114.733 343.659 114.892 343.622 115.044C343.497 115.407 343.277 115.73 342.983 115.978C342.69 116.227 342.336 116.391 341.957 116.455C341.328 116.617 340.688 116.759 340.049 116.891C341.881 117.758 343.774 118.491 345.712 119.083C346.941 119.489 346.443 121.438 345.205 121.032L343.885 120.596C344.621 121.017 345.332 121.478 346.017 121.976C346.849 122.585 346.453 124.229 345.266 123.834C343.668 123.301 342.114 122.646 340.617 121.875C341.551 122.551 342.502 123.174 343.469 123.742C344.576 124.422 343.591 126.178 342.454 125.498C341.101 124.666 339.775 123.779 338.476 122.839C338.79 123.397 339.085 123.955 339.379 124.534C339.957 125.691 338.242 126.737 337.653 125.549C337.065 124.361 336.496 123.357 335.847 122.291H335.715C332.487 120.782 329.293 119.212 326.133 117.581C324.976 116.982 325.971 115.226 327.148 115.825L328.61 116.576C328.639 116.422 328.699 116.275 328.787 116.144C328.874 116.014 328.986 115.902 329.117 115.815C329.017 115.669 328.957 115.499 328.944 115.322C328.93 115.145 328.963 114.968 329.039 114.808C329.115 114.648 329.231 114.51 329.377 114.409C329.522 114.308 329.692 114.247 329.868 114.232C329.714 114.042 329.633 113.802 329.641 113.557C329.649 113.312 329.745 113.078 329.912 112.899C330.079 112.72 330.306 112.607 330.549 112.581C330.793 112.556 331.038 112.619 331.239 112.76Z" fill="#FFC285"/>
<path d="M339.511 117.906C338.374 119.114 337.004 120.312 335.228 119.936C335.159 119.918 335.1 119.875 335.062 119.816C335.024 119.757 335.009 119.685 335.02 119.615C335.032 119.546 335.068 119.483 335.124 119.439C335.179 119.395 335.249 119.373 335.319 119.378C336.892 119.682 338.08 118.566 339.074 117.52C339.318 117.287 339.765 117.642 339.511 117.906Z" fill="#6D320B"/>
<path d="M340.729 119.124C342.251 119.724 343.807 120.236 345.388 120.657C345.652 120.728 345.581 121.144 345.317 121.073C343.698 120.644 342.105 120.122 340.546 119.51C340.292 119.418 340.475 119.033 340.729 119.124Z" fill="#6D320B"/>
<path d="M339.795 121.144C341.531 122.182 343.399 122.985 345.347 123.529C345.611 123.6 345.54 124.026 345.276 123.945C343.292 123.392 341.391 122.576 339.622 121.519C339.389 121.387 339.562 121.002 339.795 121.144Z" fill="#6D320B"/>
<path d="M337.704 122.22C339.023 123.223 340.437 124.093 341.927 124.818C342.17 124.94 341.998 125.326 341.754 125.204C340.232 124.462 338.787 123.571 337.44 122.545C337.217 122.382 337.481 122.057 337.704 122.22Z" fill="#6D320B"/>
<path d="M339.257 101.321C339.957 99.4128 340.587 97.4741 341.216 95.5253C342.238 92.7639 342.949 89.8976 343.337 86.979C342.82 85.6189 340.993 84.5836 339.704 84.2791C338.08 83.9036 336.425 84.5938 334.781 84.5735C332.639 84.5735 330.944 83.7006 328.945 83.1423C326.875 82.6324 324.701 82.7419 322.692 83.457C320.862 84.1061 318.897 84.2864 316.979 83.9815C315.061 83.6765 313.249 82.896 311.71 81.7112C309.883 80.2699 308.462 79.0925 306.158 78.4936C302.595 77.57 298.931 78.25 296.607 81.2443C294.506 83.9543 294.059 87.4967 296.312 90.2473C297.518 91.52 299.089 92.3856 300.809 92.7239C302.372 93.1705 303.854 94.084 305.447 94.3682H305.63C307.154 94.4678 308.669 94.6644 310.167 94.9569C312.055 95.505 313.811 96.449 315.669 97.0986C318.135 97.9715 320.52 97.6264 323.058 97.2914C326.285 96.8753 327.991 97.87 330.508 99.6868L330.965 100.001C332.734 101.062 334.769 101.594 336.831 101.534C337.644 101.533 338.456 101.461 339.257 101.321Z" fill="#EE6300"/>
<path d="M278.915 78.0267C278.357 77.0117 277.779 75.9967 277.281 74.9817C277.095 73.0658 277.01 71.1414 277.027 69.2165C277.159 68.4099 277.159 67.5872 277.027 66.7805C277.017 66.6264 276.971 66.4768 276.893 66.3431C276.816 66.2094 276.709 66.0951 276.581 66.009C276.453 65.9228 276.306 65.8671 276.153 65.846C276 65.8249 275.845 65.8391 275.698 65.8873C275.345 66.0393 275.041 66.2836 274.815 66.5945C274.59 66.9053 274.453 67.2712 274.419 67.6534C274.297 68.2929 274.206 68.9425 274.125 69.5819C273.124 67.8007 272.255 65.9485 271.526 64.04C271.039 62.8525 269.121 63.4818 269.618 64.6896L270.156 65.9787C269.679 65.2744 269.164 64.5967 268.613 63.9487C267.943 63.1671 266.339 63.6746 266.817 64.8317C267.453 66.3968 268.21 67.9103 269.08 69.3586C268.363 68.479 267.686 67.579 267.05 66.6587C266.289 65.6437 264.614 66.7196 265.375 67.7752C266.309 69.0677 267.294 70.3229 268.329 71.5409C267.75 71.277 267.172 71.0131 266.573 70.7695C265.375 70.2721 264.462 72.0687 265.659 72.566C266.857 73.0634 267.933 73.581 269.039 74.1291L269.1 74.2509C270.839 77.3568 272.643 80.4255 274.51 83.457C275.19 84.5633 276.865 83.457 276.185 82.3405L275.332 80.9398C275.484 80.8981 275.627 80.8263 275.75 80.7287C275.874 80.631 275.977 80.5095 276.053 80.3714C276.207 80.4602 276.381 80.5071 276.559 80.5074C276.737 80.5076 276.911 80.4613 277.065 80.3729C277.22 80.2845 277.348 80.1573 277.437 80.0038C277.527 79.8504 277.574 79.6761 277.576 79.4985C277.777 79.6191 278.013 79.6664 278.245 79.6323C278.477 79.5981 278.69 79.4847 278.848 79.3113C279.006 79.1379 279.099 78.9152 279.111 78.681C279.123 78.4468 279.054 78.2156 278.915 78.0267Z" fill="#FFC285"/>
<path d="M273.14 70.13C272.024 71.348 270.927 72.8096 271.394 74.5554C271.486 74.9107 272.044 74.7787 271.942 74.4235C271.526 72.8807 272.541 71.6119 273.516 70.5462C273.759 70.3127 273.373 69.8966 273.14 70.13Z" fill="#6D320B"/>
<path d="M271.821 69.044C271.111 67.5687 270.488 66.0539 269.953 64.5069C269.862 64.2532 269.445 64.3445 269.537 64.6084C270.083 66.1899 270.72 67.7386 271.445 69.247C271.567 69.5007 271.932 69.2876 271.821 69.044Z" fill="#6D320B"/>
<path d="M269.882 70.13C268.703 68.478 267.751 66.6756 267.05 64.7708C266.959 64.5171 266.543 64.6084 266.634 64.8723C267.331 66.8105 268.283 68.6469 269.466 70.333C269.669 70.5462 270.044 70.3533 269.882 70.13Z" fill="#6D320B"/>
<path d="M268.958 72.2919C267.858 71.0381 266.886 69.6781 266.055 68.2319C265.913 67.9985 265.538 68.2319 265.68 68.4349C266.533 69.8818 267.525 71.2416 268.644 72.4949C268.826 72.7893 269.141 72.4949 268.958 72.2919Z" fill="#6D320B"/>
<path d="M306.29 90.8969L299.408 89.547C293.588 89.3376 288.069 86.9036 283.99 82.7465C281.564 80.2635 279.439 77.5041 277.657 74.525C275.553 75.7732 273.681 77.377 272.125 79.265C271.307 80.2014 270.557 81.1953 269.882 82.239C272.927 88.4609 280.448 98.3267 289.644 101.778C289.644 101.778 290.365 116.546 290.659 124.514C290.659 124.514 299.672 129.03 312.492 124.433C312.552 124.402 308.665 94.2769 306.29 90.8969Z" fill="#68E1FD"/>
<path d="M302.768 90.6939C302.768 90.6939 316.105 100.661 336.76 113.349C336.76 113.349 335.552 120.23 332.7 122.849C332.7 122.849 310.137 115.044 304.28 104.853" fill="#68E1FD"/>
<path d="M296.739 84.4719C296.739 84.4719 294.333 91.516 298.83 94.6828C303.326 97.8496 309.386 91.1709 307.701 84.9185C306.016 78.6661 299.53 78.4225 296.739 84.4719Z" fill="#FFC285"/>
<path d="M308.34 93.6577C307.978 93.7332 307.602 93.717 307.248 93.6107C306.893 93.5043 306.571 93.3112 306.31 93.0487C305.783 92.3341 305.561 91.4401 305.691 90.5619C305.717 89.9964 305.595 89.4338 305.337 88.93C305.079 88.4261 304.694 87.9985 304.219 87.6895C303.042 86.8978 301.56 86.6745 300.484 85.6595C300.372 85.558 300.271 85.4463 300.169 85.3347C300.31 85.4644 300.463 85.58 300.626 85.6798C302.362 86.6948 304.94 86.9688 305.752 87.385C306.564 87.8011 305.285 90.9984 306.767 92.3991C308.249 93.7998 311.609 84.9794 309.619 82.5942C307.63 80.2089 301.083 77.4278 298.251 81.4168C298.332 81.76 298.43 82.0987 298.545 82.4318C298.616 83.5075 299.017 84.5352 299.692 85.3753C300.707 86.6846 302.291 86.979 303.692 87.7707C304.14 87.9909 304.523 88.3255 304.801 88.7407C305.079 89.1559 305.242 89.637 305.275 90.1356C305.219 90.9608 305.312 91.7894 305.549 92.5818C305.81 93.1224 306.249 93.5573 306.792 93.8139C307.335 94.0706 307.949 94.1337 308.533 93.9926C308.736 94.0028 308.604 93.5968 308.34 93.6577Z" fill="#EE6300"/>
<path d="M50.1445 125.478C50.1445 122.456 47.6974 120.007 44.6787 120.007C41.6601 120.007 39.213 122.456 39.213 125.478V156.608C39.213 159.629 41.6601 162.079 44.6787 162.079C47.6974 162.079 50.1445 159.629 50.1445 156.608V125.478Z" fill="#B64A3D"/>
<path d="M22.1812 128.716C22.1812 128.716 24.2112 147.422 45.4349 147.422C66.6585 147.422 69.2265 128.716 69.2265 128.716L47.81 66.2121L22.1812 128.716Z" fill="#076765"/>
<path d="M75.8646 146.539H73.053C71.6012 146.539 70.4242 147.716 70.4242 149.168V174.969C70.4242 176.421 71.6012 177.598 73.053 177.598H75.8646C77.3165 177.598 78.4934 176.421 78.4934 174.969V149.168C78.4934 147.716 77.3165 146.539 75.8646 146.539Z" fill="#B64A3D"/>
<path d="M57.8483 152.974C57.8483 152.974 59.3404 166.788 75.012 166.788C90.6836 166.788 92.5918 152.974 92.5918 152.974L76.7375 106.822L57.8483 152.974Z" fill="#076765"/>
<path d="M199.278 60.0916C199.278 57.0702 196.831 54.6208 193.813 54.6208C190.794 54.6208 188.347 57.0702 188.347 60.0916V91.2217C188.347 94.2432 190.794 96.6925 193.813 96.6925C196.831 96.6925 199.278 94.2432 199.278 91.2217V60.0916Z" fill="#B64A3D"/>
<path d="M171.315 63.3295C171.315 63.3295 173.345 82.036 194.569 82.036C215.792 82.036 218.33 63.3295 218.33 63.3295L196.903 0.825806L171.315 63.3295Z" fill="#076765"/>
<path d="M224.999 81.1529H222.187C220.735 81.1529 219.558 82.3299 219.558 83.7817V109.583C219.558 111.035 220.735 112.212 222.187 112.212H224.999C226.45 112.212 227.627 111.035 227.627 109.583V83.7817C227.627 82.3299 226.45 81.1529 224.999 81.1529Z" fill="#B64A3D"/>
<path d="M206.982 87.5778C206.982 87.5778 208.474 101.392 224.146 101.392C239.818 101.392 241.726 87.5778 241.726 87.5778L225.871 41.4258L206.982 87.5778Z" fill="#076765"/>
<path d="M171.955 85.4869H169.143C167.691 85.4869 166.514 86.6639 166.514 88.1158V113.917C166.514 115.369 167.691 116.546 169.143 116.546H171.955C173.406 116.546 174.583 115.369 174.583 113.917V88.1158C174.583 86.6639 173.406 85.4869 171.955 85.4869Z" fill="#B64A3D"/>
<path d="M153.938 91.9119C153.938 91.9119 155.43 105.726 171.102 105.726C186.774 105.726 188.682 91.9119 188.682 91.9119L172.838 45.77L153.938 91.9119Z" fill="#076765"/>
<path d="M276.733 79.8537C266.93 71.6573 254.358 67.5307 241.604 68.3233C227.394 69.2672 214.26 75.4283 200.77 79.4883C171.092 88.4203 138.307 82.9596 113.947 63.5223C102.075 53.9935 92.7205 41.6978 86.7048 27.7131C86.1872 26.5154 84.4414 27.5507 84.9489 28.7281C90.0194 40.4302 97.3964 50.9904 106.639 59.778C115.882 68.5656 126.801 75.4003 138.744 79.874C152.341 84.8681 166.879 86.7716 181.303 85.4463C195.97 84.1065 209.266 78.5037 223.192 74.1798C241.411 68.5263 259.986 68.6785 275.343 81.2848C276.307 82.107 277.748 80.6758 276.733 79.8537Z" fill="#FBB03B"/>
<path d="M50.1445 14.0716L60.396 39.4161L111.369 26.7388L82.6042 3.24152L50.1445 14.0716Z" fill="#68E1FD"/>
<path opacity="0.32" d="M50.1445 14.0716L75.489 17.7662L82.6042 3.24152L50.1445 14.0716Z" fill="#606060"/>
<path opacity="0.5" d="M82.6042 3.24152L75.489 17.7662L111.369 26.7388L82.6042 3.24152Z" fill="#606060"/>
<path d="M108.994 25.0234C108.994 25.0234 127.619 27.7842 138.246 40.1774C148.874 52.5705 148.508 68.8613 155.826 70.3026C173.213 73.7333 181.069 52.6314 198.781 55.7069L197.898 58.6402C197.898 58.6402 189.636 56.1332 177.537 61.736C165.438 67.3388 162.2 70.2924 156.75 68.1C151.299 65.9076 147.899 52.1645 140.51 39.0406C133.121 25.9166 107.319 27.3884 107.319 27.3884L108.994 25.0234Z" fill="#68E1FD"/>
<defs>
<linearGradient id="paint0_linear_1_198" x1="309.162" y1="148.864" x2="240.021" y2="215.356" gradientUnits="userSpaceOnUse">
<stop stop-color="#808080"/>
<stop offset="1" stop-color="white"/>
</linearGradient>
<linearGradient id="paint1_linear_1_198" x1="358.522" y1="145.676" x2="289.867" y2="211.692" gradientUnits="userSpaceOnUse">
<stop stop-color="#808080"/>
<stop offset="1" stop-color="white"/>
</linearGradient>
<linearGradient id="paint2_linear_1_198" x1="184.327" y1="92.4702" x2="147.412" y2="127.965" gradientUnits="userSpaceOnUse">
<stop stop-color="#808080"/>
<stop offset="1" stop-color="white"/>
</linearGradient>
<linearGradient id="paint3_linear_1_198" x1="208.068" y1="72.0281" x2="171.518" y2="107.178" gradientUnits="userSpaceOnUse">
<stop stop-color="#808080"/>
<stop offset="1" stop-color="white"/>
</linearGradient>
<linearGradient id="paint4_linear_1_198" x1="237.706" y1="87.994" x2="201.156" y2="123.143" gradientUnits="userSpaceOnUse">
<stop stop-color="#808080"/>
<stop offset="1" stop-color="white"/>
</linearGradient>
<linearGradient id="paint5_linear_1_198" x1="88.481" y1="153.604" x2="51.5655" y2="189.098" gradientUnits="userSpaceOnUse">
<stop stop-color="#808080"/>
<stop offset="1" stop-color="white"/>
</linearGradient>
<linearGradient id="paint6_linear_1_198" x1="58.1833" y1="139.292" x2="24.0691" y2="172.087" gradientUnits="userSpaceOnUse">
<stop stop-color="#808080"/>
<stop offset="1" stop-color="white"/>
</linearGradient>
</defs>
</svg>
